<?xml version="1.0" encoding="UTF-8"?>
<svg xmlns="http://www.w3.org/2000/svg" xmlns:xlink="http://www.w3.org/1999/xlink" width="216pt" height="216pt" viewBox="0 0 216 216" version="1.1">
<g id="surface1">
<rect x="0" y="0" width="216" height="216" style="fill:rgb(100%,100%,100%);fill-opacity:1;stroke:none;"/>
<path style="fill:none;stroke-width:1.5;stroke-linecap:square;stroke-linejoin:round;stroke:rgb(100%,0%,0%);stroke-opacity:1;stroke-miterlimit:10;" d="M 7.535156 6.113281 L 7.535156 169.132812 " transform="matrix(1,0,0,-1,0,216)"/>
<path style="fill:none;stroke-width:1.5;stroke-linecap:square;stroke-linejoin:round;stroke:rgb(100%,0%,0%);stroke-opacity:1;stroke-miterlimit:10;" d="M 57.765625 6.113281 L 57.765625 169.132812 " transform="matrix(1,0,0,-1,0,216)"/>
<path style="fill:none;stroke-width:1.5;stroke-linecap:square;stroke-linejoin:round;stroke:rgb(100%,0%,0%);stroke-opacity:1;stroke-miterlimit:10;" d="M 108 6.113281 L 108 169.132812 " transform="matrix(1,0,0,-1,0,216)"/>
<path style="fill:none;stroke-width:1.5;stroke-linecap:square;stroke-linejoin:round;stroke:rgb(100%,0%,0%);stroke-opacity:1;stroke-miterlimit:10;" d="M 158.234375 6.113281 L 158.234375 169.132812 " transform="matrix(1,0,0,-1,0,216)"/>
<path style="fill:none;stroke-width:1.5;stroke-linecap:square;stroke-linejoin:round;stroke:rgb(100%,0%,0%);stroke-opacity:1;stroke-miterlimit:10;" d="M 208.464844 6.113281 L 208.464844 169.132812 " transform="matrix(1,0,0,-1,0,216)"/>
<path style="fill:none;stroke-width:1.5;stroke-linecap:square;stroke-linejoin:round;stroke:rgb(100%,0%,0%);stroke-opacity:1;stroke-miterlimit:10;" d="M 7.535156 6.113281 L 208.464844 6.113281 " transform="matrix(1,0,0,-1,0,216)"/>
<path style="fill:none;stroke-width:1.5;stroke-linecap:square;stroke-linejoin:round;stroke:rgb(100%,0%,0%);stroke-opacity:1;stroke-miterlimit:10;" d="M 7.535156 46.867188 L 208.464844 46.867188 " transform="matrix(1,0,0,-1,0,216)"/>
<path style="fill:none;stroke-width:1.5;stroke-linecap:square;stroke-linejoin:round;stroke:rgb(100%,0%,0%);stroke-opacity:1;stroke-miterlimit:10;" d="M 7.535156 87.621094 L 208.464844 87.621094 " transform="matrix(1,0,0,-1,0,216)"/>
<path style="fill:none;stroke-width:1.5;stroke-linecap:square;stroke-linejoin:round;stroke:rgb(100%,0%,0%);stroke-opacity:1;stroke-miterlimit:10;" d="M 7.535156 128.378906 L 208.464844 128.378906 " transform="matrix(1,0,0,-1,0,216)"/>
<path style="fill:none;stroke-width:1.5;stroke-linecap:square;stroke-linejoin:round;stroke:rgb(100%,0%,0%);stroke-opacity:1;stroke-miterlimit:10;" d="M 7.535156 169.132812 L 208.464844 169.132812 " transform="matrix(1,0,0,-1,0,216)"/>
<path style="fill-rule:nonzero;fill:rgb(0%,0%,0%);fill-opacity:1;stroke-width:1;stroke-linecap:round;stroke-linejoin:round;stroke:rgb(0%,0%,0%);stroke-opacity:1;stroke-miterlimit:10;" d="M 32.152344 27.042969 C 32.152344 83.804688 32.152344 140.570312 32.152344 197.335938 L 26.652344 197.335938 C 28.652344 201.335938 30.652344 205.335938 32.652344 209.335938 C 34.652344 205.335938 36.652344 201.335938 38.652344 197.335938 L 33.152344 197.335938 C 33.152344 140.570312 33.152344 83.804688 33.152344 27.042969 Z M 32.152344 27.042969 " transform="matrix(1,0,0,-1,0,216)"/>
<path style="fill-rule:nonzero;fill:rgb(0%,0%,0%);fill-opacity:1;stroke-width:1;stroke-linecap:round;stroke-linejoin:round;stroke:rgb(0%,0%,0%);stroke-opacity:1;stroke-miterlimit:10;" d="M 82.382812 27.042969 C 82.382812 83.804688 82.382812 140.570312 82.382812 197.335938 L 76.882812 197.335938 C 78.882812 201.335938 80.882812 205.335938 82.882812 209.335938 C 84.882812 205.335938 86.882812 201.335938 88.882812 197.335938 L 83.382812 197.335938 C 83.382812 140.570312 83.382812 83.804688 83.382812 27.042969 Z M 82.382812 27.042969 " transform="matrix(1,0,0,-1,0,216)"/>
<path style="fill-rule:nonzero;fill:rgb(0%,0%,0%);fill-opacity:1;stroke-width:1;stroke-linecap:round;stroke-linejoin:round;stroke:rgb(0%,0%,0%);stroke-opacity:1;stroke-miterlimit:10;" d="M 132.617188 27.042969 C 132.617188 83.804688 132.617188 140.570312 132.617188 197.335938 L 127.117188 197.335938 C 129.117188 201.335938 131.117188 205.335938 133.117188 209.335938 C 135.117188 205.335938 137.117188 201.335938 139.117188 197.335938 L 133.617188 197.335938 C 133.617188 140.570312 133.617188 83.804688 133.617188 27.042969 Z M 132.617188 27.042969 " transform="matrix(1,0,0,-1,0,216)"/>
<path style="fill-rule:nonzero;fill:rgb(0%,0%,0%);fill-opacity:1;stroke-width:1;stroke-linecap:round;stroke-linejoin:round;stroke:rgb(0%,0%,0%);stroke-opacity:1;stroke-miterlimit:10;" d="M 182.847656 27.042969 C 182.847656 83.804688 182.847656 140.570312 182.847656 197.335938 L 177.347656 197.335938 C 179.347656 201.335938 181.347656 205.335938 183.347656 209.335938 C 185.347656 205.335938 187.347656 201.335938 189.347656 197.335938 L 183.847656 197.335938 C 183.847656 140.570312 183.847656 83.804688 183.847656 27.042969 Z M 182.847656 27.042969 " transform="matrix(1,0,0,-1,0,216)"/>
</g>
</svg>
