<?xml version="1.0" encoding="UTF-8"?>
<svg xmlns="http://www.w3.org/2000/svg" xmlns:xlink="http://www.w3.org/1999/xlink" width="377.5573pt" height="251.155918pt" viewBox="0 0 377.5573 251.155918" version="1.1">
<defs>
<clipPath id="clip1">
  <path d="M 40.105469 33 L 374.90625 33 L 374.90625 192 L 40.105469 192 Z M 40.105469 33 "/>
</clipPath>
<clipPath id="clip2">
  <path d="M 327 33 L 364 33 L 364 219.734375 L 327 219.734375 Z M 327 33 "/>
</clipPath>
<clipPath id="clip3">
  <path d="M 326 33 L 365 33 L 365 219.734375 L 326 219.734375 Z M 326 33 "/>
</clipPath>
<clipPath id="clip4">
  <path d="M 40.105469 33 L 374.90625 33 L 374.90625 193 L 40.105469 193 Z M 40.105469 33 "/>
</clipPath>
</defs>
<g id="surface1">
<path style=" stroke:none;fill-rule:nonzero;fill:rgb(100%,100%,100%);fill-opacity:1;" d="M 40.105469 219.734375 L 374.90625 219.734375 L 374.90625 2.292969 L 40.105469 2.292969 Z M 40.105469 219.734375 "/>
<g clip-path="url(#clip1)" clip-rule="nonzero">
<path style="fill-rule:nonzero;fill:rgb(12.156677%,46.665955%,70.588684%);fill-opacity:1;stroke-width:1;stroke-linecap:butt;stroke-linejoin:round;stroke:rgb(12.156677%,46.665955%,70.588684%);stroke-opacity:1;stroke-miterlimit:10;" d="M -735.171906 221.847181 L -717.937531 221.847181 L -716.019563 221.843275 L -647.078156 221.843275 L -645.164094 221.839369 L -589.628938 221.839369 L -587.710969 221.835462 L -543.664094 221.835462 L -541.750031 221.831556 L -503.44925 221.831556 L -501.535188 221.82765 L -468.976594 221.82765 L -467.062531 221.823744 L -440.253938 221.823744 L -438.335969 221.819837 L -413.441438 221.819837 L -411.527375 221.815931 L -390.460969 221.815931 L -388.546906 221.812025 L -369.394563 221.812025 L -367.4805 221.808119 L -350.246125 221.808119 L -348.328156 221.804212 L -333.007844 221.804212 L -331.093781 221.800306 L -317.687531 221.800306 L -315.773469 221.7964 L -304.285188 221.7964 L -302.367219 221.792494 L -290.878938 221.792494 L -288.960969 221.788587 L -277.472688 221.788587 L -275.558625 221.784681 L -265.9805 221.784681 L -264.066438 221.780775 L -256.406281 221.780775 L -254.492219 221.776869 L -246.832063 221.776869 L -244.918 221.772962 L -237.257844 221.772962 L -235.339875 221.769056 L -227.679719 221.769056 L -225.765656 221.76515 L -218.1055 221.76515 L -216.191438 221.761244 L -210.445344 221.761244 L -208.531281 221.757337 L -202.785188 221.757337 L -200.871125 221.753431 L -197.039094 221.753431 L -195.125031 221.749525 L -189.378938 221.749525 L -187.464875 221.745619 L -183.632844 221.745619 L -181.718781 221.741712 L -177.890656 221.741712 L -175.972688 221.737806 L -170.2305 221.737806 L -168.312531 221.7339 L -164.484406 221.7339 L -162.570344 221.729994 L -160.652375 221.729994 L -158.738313 221.726087 L -154.910188 221.726087 L -152.992219 221.722181 L -149.164094 221.722181 L -147.250031 221.718275 L -145.332063 221.718275 L -143.418 221.714369 L -139.589875 221.714369 L -137.671906 221.710462 L -135.757844 221.710462 L -133.843781 221.706556 L -131.929719 221.706556 L -130.01175 221.70265 L -128.097688 221.70265 L -126.183625 221.698744 L -124.269563 221.698744 L -122.351594 221.694837 L -120.437531 221.694837 L -118.523469 221.690931 L -116.609406 221.690931 L -114.691438 221.687025 L -112.777375 221.687025 L -110.863313 221.683119 L -108.94925 221.683119 L -107.031281 221.679212 L -105.117219 221.679212 L -101.289094 221.6714 L -99.371125 221.6714 L -97.457063 221.667494 L -95.543 221.667494 L -93.628938 221.663587 L -91.710969 221.659681 L -89.796906 221.659681 L -87.882844 221.655775 L -85.964875 221.651869 L -84.050813 221.651869 L -80.222688 221.644056 L -78.304719 221.644056 L -72.562531 221.632337 L -70.644563 221.628431 L -68.7305 221.628431 L -64.902375 221.620619 L -62.984406 221.616712 L -57.242219 221.604994 L -55.32425 221.604994 L -49.582062 221.593275 L -47.664094 221.589369 L -43.835969 221.581556 L -41.921906 221.573744 L -40.003937 221.569837 L -34.26175 221.558119 L -32.343781 221.554212 L -30.429719 221.5464 L -26.601594 221.538587 L -24.683625 221.534681 L -22.769562 221.526869 L -20.8555 221.522962 L -18.941437 221.51515 L -17.023469 221.511244 L -15.109406 221.507337 L -11.281281 221.491712 L -9.363312 221.487806 L -5.535187 221.472181 L -3.621125 221.468275 L -1.703156 221.460462 L 4.039031 221.437025 L 5.957 221.429212 L 9.785125 221.413587 L 11.703094 221.405775 L 17.445281 221.382337 L 19.36325 221.370619 L 21.277313 221.362806 L 23.191375 221.351087 L 25.105438 221.343275 L 27.023406 221.331556 L 32.765594 221.2964 L 34.683563 221.284681 L 40.42575 221.249525 L 42.343719 221.2339 L 44.257781 221.222181 L 48.085906 221.190931 L 50.003875 221.179212 L 51.917938 221.163587 L 53.832 221.144056 L 55.746063 221.128431 L 57.664031 221.112806 L 63.406219 221.054212 L 65.324187 221.034681 L 67.23825 221.01515 L 69.152312 220.991712 L 71.066375 220.972181 L 72.984344 220.948744 L 74.898406 220.9214 L 76.812469 220.897962 L 78.726531 220.870619 L 80.6445 220.843275 L 82.558562 220.815931 L 84.472625 220.784681 L 86.386687 220.757337 L 88.304656 220.722181 L 90.218719 220.690931 L 92.132781 220.655775 L 94.046844 220.616712 L 95.964812 220.581556 L 101.707 220.45265 L 103.624969 220.405775 L 105.539031 220.3589 L 107.453094 220.308119 L 109.367156 220.253431 L 111.285125 220.198744 L 115.11325 220.073744 L 117.031219 220.007337 L 120.859344 219.866712 L 122.773406 219.784681 L 124.691375 219.70265 L 126.605437 219.616712 L 128.5195 219.522962 L 130.433562 219.4214 L 132.351531 219.315931 L 134.265594 219.20265 L 136.179656 219.081556 L 138.093719 218.95265 L 140.011687 218.815931 L 141.92575 218.667494 L 143.839812 218.507337 L 145.753875 218.335462 L 147.671844 218.151869 L 149.585906 217.95265 L 151.499969 217.737806 L 153.414031 217.503431 L 155.332 217.245619 L 157.246062 216.968275 L 159.160125 216.663587 L 161.074187 216.331556 L 162.992156 215.968275 L 164.906219 215.565931 L 166.820281 215.116712 L 168.734344 214.624525 L 170.652312 214.073744 L 172.566375 213.456556 L 174.480437 212.769056 L 176.3945 211.987806 L 178.312469 211.104994 L 180.226531 210.101087 L 182.140594 208.944837 L 184.054656 207.616712 L 185.972625 206.073744 L 187.886687 204.269056 L 189.80075 202.136244 L 191.714812 199.601087 L 193.632781 196.5464 L 195.546844 192.835462 L 197.460906 188.261244 L 199.374969 182.5464 L 201.292937 175.284681 L 203.207 165.882337 L 205.121062 153.362806 L 207.039031 135.761244 L 208.953094 109.1714 L 210.867156 76.690931 L 212.781219 64.714369 L 214.699187 64.472181 L 228.101531 64.472181 L 230.0195 64.714369 L 231.933562 76.690931 L 233.847625 109.1714 L 235.761687 135.761244 L 237.679656 153.362806 L 239.593719 165.882337 L 241.507781 175.284681 L 243.421844 182.5464 L 245.339812 188.261244 L 247.253875 192.835462 L 249.167937 196.5464 L 251.082 199.601087 L 252.999969 202.136244 L 254.914031 204.269056 L 256.828094 206.073744 L 258.742156 207.616712 L 260.660125 208.944837 L 262.574187 210.101087 L 264.48825 211.104994 L 266.402312 211.987806 L 268.320281 212.769056 L 270.234344 213.456556 L 272.148406 214.073744 L 274.062469 214.624525 L 275.980437 215.116712 L 277.8945 215.565931 L 279.808562 215.968275 L 281.722625 216.331556 L 283.640594 216.663587 L 285.554656 216.968275 L 287.468719 217.245619 L 289.382781 217.503431 L 291.30075 217.737806 L 293.214812 217.95265 L 295.128875 218.151869 L 297.042937 218.335462 L 298.960906 218.507337 L 300.874969 218.667494 L 302.789031 218.815931 L 304.703094 218.95265 L 306.621062 219.081556 L 308.535125 219.20265 L 310.449187 219.315931 L 312.367156 219.4214 L 314.281219 219.522962 L 316.195281 219.616712 L 318.109344 219.70265 L 320.027312 219.784681 L 321.941375 219.866712 L 325.7695 220.007337 L 327.687469 220.073744 L 331.515594 220.198744 L 333.429656 220.253431 L 335.347625 220.308119 L 337.261687 220.3589 L 341.089812 220.45265 L 343.007781 220.495619 L 346.835906 220.581556 L 348.749969 220.616712 L 350.667937 220.655775 L 352.582 220.690931 L 354.496062 220.722181 L 356.410125 220.757337 L 358.328094 220.784681 L 360.242156 220.815931 L 364.070281 220.870619 L 365.98825 220.897962 L 367.902312 220.9214 L 369.816375 220.948744 L 371.730437 220.972181 L 373.648406 220.991712 L 375.562469 221.01515 L 379.390594 221.054212 L 381.308562 221.073744 L 385.136687 221.112806 L 387.05075 221.128431 L 388.968719 221.144056 L 390.882781 221.163587 L 392.796844 221.179212 L 394.710906 221.190931 L 396.628875 221.206556 L 398.542937 221.222181 L 400.457 221.2339 L 402.371062 221.249525 L 404.289031 221.261244 L 408.117156 221.284681 L 410.035125 221.2964 L 415.777312 221.331556 L 417.695281 221.343275 L 419.609344 221.351087 L 421.523406 221.362806 L 423.437469 221.370619 L 425.355437 221.382337 L 431.097625 221.405775 L 433.015594 221.413587 L 438.757781 221.437025 L 440.67575 221.444837 L 446.417937 221.468275 L 448.335906 221.472181 L 452.164031 221.487806 L 454.078094 221.491712 L 455.996062 221.499525 L 457.910125 221.507337 L 461.73825 221.51515 L 463.656219 221.522962 L 465.570281 221.526869 L 467.484344 221.534681 L 469.398406 221.538587 L 471.316375 221.542494 L 473.230437 221.5464 L 475.1445 221.554212 L 477.058562 221.558119 L 478.976531 221.562025 L 484.718719 221.573744 L 486.636687 221.581556 L 492.378875 221.593275 L 494.296844 221.597181 L 498.124969 221.604994 L 500.039031 221.604994 L 501.957 221.6089 L 505.785125 221.616712 L 507.703094 221.620619 L 511.531219 221.628431 L 513.445281 221.628431 L 515.36325 221.632337 L 521.105437 221.644056 L 523.023406 221.644056 L 526.851531 221.651869 L 528.765594 221.651869 L 530.683562 221.655775 L 532.597625 221.659681 L 534.511687 221.659681 L 536.42575 221.663587 L 538.343719 221.667494 L 540.257781 221.667494 L 542.171844 221.6714 L 544.085906 221.6714 L 546.003875 221.675306 L 547.917937 221.679212 L 549.832 221.679212 L 551.746062 221.683119 L 553.664031 221.683119 L 555.578094 221.687025 L 557.492156 221.687025 L 559.406219 221.690931 L 561.324187 221.690931 L 563.23825 221.694837 L 565.152312 221.694837 L 567.066375 221.698744 L 568.984344 221.698744 L 570.898406 221.70265 L 572.812469 221.70265 L 574.726531 221.706556 L 576.6445 221.706556 L 578.558562 221.710462 L 580.472625 221.710462 L 582.386687 221.714369 L 586.218719 221.714369 L 588.132781 221.718275 L 590.046844 221.718275 L 591.964812 221.722181 L 595.792937 221.722181 L 597.707 221.726087 L 601.539031 221.726087 L 603.453094 221.729994 L 605.367156 221.729994 L 607.285125 221.7339 L 611.11325 221.7339 L 613.031219 221.737806 L 618.773406 221.737806 L 620.691375 221.741712 L 624.5195 221.741712 L 626.433562 221.745619 L 630.265594 221.745619 L 632.179656 221.749525 L 637.92575 221.749525 L 639.839812 221.753431 L 643.671844 221.753431 L 645.585906 221.757337 L 651.332 221.757337 L 653.246062 221.761244 L 658.992156 221.761244 L 660.906219 221.76515 L 668.566375 221.76515 L 670.480437 221.769056 L 678.140594 221.769056 L 680.054656 221.772962 L 687.714812 221.772962 L 689.632781 221.776869 L 697.292937 221.776869 L 699.207 221.780775 L 706.867156 221.780775 L 708.781219 221.784681 L 718.359344 221.784681 L 720.273406 221.788587 L 731.761687 221.788587 L 733.679656 221.792494 L 745.167937 221.792494 L 747.082 221.7964 L 758.574187 221.7964 L 760.48825 221.800306 L 773.8945 221.800306 L 775.808562 221.804212 L 791.128875 221.804212 L 793.042937 221.808119 L 810.281219 221.808119 L 812.195281 221.812025 L 831.347625 221.812025 L 833.261687 221.815931 L 854.328094 221.815931 L 856.242156 221.819837 L 881.136687 221.819837 L 883.05075 221.823744 L 909.86325 221.823744 L 911.777312 221.82765 L 944.335906 221.82765 L 946.249969 221.831556 L 984.55075 221.831556 L 986.464812 221.835462 L 1030.511688 221.835462 L 1032.42575 221.839369 L 1087.964813 221.839369 L 1089.878875 221.843275 L 1158.820281 221.843275 L 1160.734344 221.847181 L 1177.972625 221.847181 Z M -735.171906 221.847181 " transform="matrix(1,0,0,-1,-13.8945,255.7339)"/>
</g>
<g clip-path="url(#clip2)" clip-rule="nonzero">
<path style=" stroke:none;fill-rule:nonzero;fill:rgb(12.156677%,46.665955%,70.588684%);fill-opacity:1;" d="M 327.078125 33.886719 L 327.078125 219.734375 L 363.585938 219.734375 L 363.585938 33.886719 Z M 327.078125 33.886719 "/>
</g>
<g clip-path="url(#clip3)" clip-rule="nonzero">
<path style="fill:none;stroke-width:1;stroke-linecap:butt;stroke-linejoin:round;stroke:rgb(12.156677%,46.665955%,70.588684%);stroke-opacity:1;stroke-miterlimit:10;" d="M 340.972625 221.847181 L 340.972625 35.999525 L 377.480437 35.999525 L 377.480437 221.847181 Z M 340.972625 221.847181 " transform="matrix(1,0,0,-1,-13.8945,255.7339)"/>
</g>
<path style="fill:none;stroke-width:0.8;stroke-linecap:butt;stroke-linejoin:round;stroke:rgb(0%,0%,0%);stroke-opacity:1;stroke-miterlimit:10;" d="M 77.914031 35.999525 L 77.914031 32.499525 " transform="matrix(1,0,0,-1,-13.8945,255.7339)"/>
<path style=" stroke:none;fill-rule:nonzero;fill:rgb(0%,0%,0%);fill-opacity:1;" d="M 65.910156 230.398438 C 66.382812 230.496094 66.75 230.707031 67.011719 231.027344 C 67.273438 231.347656 67.410156 231.746094 67.410156 232.207031 C 67.410156 232.925781 67.160156 233.488281 66.671875 233.878906 C 66.171875 234.269531 65.472656 234.457031 64.5625 234.457031 C 64.25 234.457031 63.933594 234.425781 63.613281 234.367188 C 63.292969 234.316406 62.953125 234.226562 62.613281 234.109375 L 62.613281 233.15625 C 62.882812 233.316406 63.183594 233.4375 63.511719 233.519531 C 63.832031 233.597656 64.171875 233.636719 64.53125 233.636719 C 65.152344 233.636719 65.621094 233.519531 65.941406 233.277344 C 66.261719 233.039062 66.433594 232.675781 66.433594 232.207031 C 66.433594 231.789062 66.28125 231.449219 65.980469 231.207031 C 65.683594 230.96875 65.261719 230.835938 64.722656 230.835938 L 63.871094 230.835938 L 63.871094 230.027344 L 64.761719 230.027344 C 65.242188 230.027344 65.613281 229.9375 65.871094 229.738281 C 66.132812 229.546875 66.261719 229.269531 66.261719 228.898438 C 66.261719 228.527344 66.121094 228.238281 65.863281 228.039062 C 65.59375 227.835938 65.210938 227.738281 64.722656 227.738281 C 64.453125 227.738281 64.160156 227.769531 63.851562 227.828125 C 63.542969 227.886719 63.203125 227.976562 62.832031 228.097656 L 62.832031 227.21875 C 63.203125 227.117188 63.550781 227.039062 63.882812 226.988281 C 64.203125 226.9375 64.511719 226.90625 64.8125 226.90625 C 65.550781 226.90625 66.140625 227.078125 66.582031 227.417969 C 67.023438 227.757812 67.242188 228.21875 67.242188 228.796875 C 67.242188 229.199219 67.121094 229.539062 66.890625 229.816406 C 66.660156 230.097656 66.332031 230.296875 65.910156 230.398438 "/>
<path style=" stroke:none;fill-rule:nonzero;fill:rgb(0%,0%,0%);fill-opacity:1;" d="M 71.390625 227.6875 C 70.882812 227.6875 70.5 227.9375 70.242188 228.4375 C 69.980469 228.9375 69.863281 229.6875 69.863281 230.6875 C 69.863281 231.6875 69.980469 232.4375 70.242188 232.9375 C 70.5 233.4375 70.882812 233.6875 71.390625 233.6875 C 71.902344 233.6875 72.28125 233.4375 72.542969 232.9375 C 72.792969 232.4375 72.921875 231.6875 72.921875 230.6875 C 72.921875 229.6875 72.792969 228.9375 72.542969 228.4375 C 72.28125 227.9375 71.902344 227.6875 71.390625 227.6875 M 71.390625 226.90625 C 72.203125 226.90625 72.820312 227.238281 73.261719 227.878906 C 73.691406 228.527344 73.910156 229.46875 73.910156 230.6875 C 73.910156 231.917969 73.691406 232.859375 73.261719 233.496094 C 72.820312 234.136719 72.203125 234.457031 71.390625 234.457031 C 70.570312 234.457031 69.941406 234.136719 69.511719 233.496094 C 69.082031 232.859375 68.871094 231.917969 68.871094 230.6875 C 68.871094 229.46875 69.082031 228.527344 69.511719 227.878906 C 69.941406 227.238281 70.570312 226.90625 71.390625 226.90625 "/>
<path style=" stroke:none;fill-rule:nonzero;fill:rgb(0%,0%,0%);fill-opacity:1;" d="M 54.53125 230.777344 L 60.792969 230.777344 L 60.792969 231.609375 L 54.53125 231.609375 L 54.53125 230.777344 "/>
<path style="fill:none;stroke-width:0.8;stroke-linecap:butt;stroke-linejoin:round;stroke:rgb(0%,0%,0%);stroke-opacity:1;stroke-miterlimit:10;" d="M 125.742156 35.999525 L 125.742156 32.499525 " transform="matrix(1,0,0,-1,-13.8945,255.7339)"/>
<path style=" stroke:none;fill-rule:nonzero;fill:rgb(0%,0%,0%);fill-opacity:1;" d="M 111.601562 233.496094 L 115.039062 233.496094 L 115.039062 234.328125 L 110.410156 234.328125 L 110.410156 233.496094 C 110.78125 233.117188 111.289062 232.597656 111.941406 231.9375 C 112.582031 231.289062 112.992188 230.867188 113.160156 230.675781 C 113.480469 230.328125 113.699219 230.027344 113.820312 229.777344 C 113.941406 229.539062 114.011719 229.289062 114.011719 229.046875 C 114.011719 228.667969 113.871094 228.347656 113.601562 228.109375 C 113.332031 227.867188 112.980469 227.738281 112.539062 227.738281 C 112.230469 227.738281 111.902344 227.796875 111.558594 227.898438 C 111.21875 228.007812 110.851562 228.167969 110.460938 228.386719 L 110.460938 227.386719 C 110.859375 227.226562 111.230469 227.109375 111.570312 227.027344 C 111.910156 226.949219 112.230469 226.90625 112.519531 226.90625 C 113.269531 226.90625 113.871094 227.097656 114.320312 227.476562 C 114.769531 227.859375 115 228.359375 115 228.988281 C 115 229.289062 114.941406 229.578125 114.832031 229.835938 C 114.71875 230.109375 114.519531 230.425781 114.21875 230.789062 C 114.140625 230.886719 113.878906 231.15625 113.441406 231.609375 C 113 232.058594 112.390625 232.6875 111.601562 233.496094 "/>
<path style=" stroke:none;fill-rule:nonzero;fill:rgb(0%,0%,0%);fill-opacity:1;" d="M 119.21875 227.6875 C 118.710938 227.6875 118.332031 227.9375 118.070312 228.4375 C 117.808594 228.9375 117.691406 229.6875 117.691406 230.6875 C 117.691406 231.6875 117.808594 232.4375 118.070312 232.9375 C 118.332031 233.4375 118.710938 233.6875 119.21875 233.6875 C 119.730469 233.6875 120.109375 233.4375 120.371094 232.9375 C 120.621094 232.4375 120.75 231.6875 120.75 230.6875 C 120.75 229.6875 120.621094 228.9375 120.371094 228.4375 C 120.109375 227.9375 119.730469 227.6875 119.21875 227.6875 M 119.21875 226.90625 C 120.03125 226.90625 120.652344 227.238281 121.089844 227.878906 C 121.519531 228.527344 121.742188 229.46875 121.742188 230.6875 C 121.742188 231.917969 121.519531 232.859375 121.089844 233.496094 C 120.652344 234.136719 120.03125 234.457031 119.21875 234.457031 C 118.402344 234.457031 117.769531 234.136719 117.339844 233.496094 C 116.910156 232.859375 116.699219 231.917969 116.699219 230.6875 C 116.699219 229.46875 116.910156 228.527344 117.339844 227.878906 C 117.769531 227.238281 118.402344 226.90625 119.21875 226.90625 "/>
<path style=" stroke:none;fill-rule:nonzero;fill:rgb(0%,0%,0%);fill-opacity:1;" d="M 102.363281 230.777344 L 108.621094 230.777344 L 108.621094 231.609375 L 102.363281 231.609375 L 102.363281 230.777344 "/>
<path style="fill:none;stroke-width:0.8;stroke-linecap:butt;stroke-linejoin:round;stroke:rgb(0%,0%,0%);stroke-opacity:1;stroke-miterlimit:10;" d="M 173.570281 35.999525 L 173.570281 32.499525 " transform="matrix(1,0,0,-1,-13.8945,255.7339)"/>
<path style=" stroke:none;fill-rule:nonzero;fill:rgb(0%,0%,0%);fill-opacity:1;" d="M 158.75 233.496094 L 160.359375 233.496094 L 160.359375 227.9375 L 158.609375 228.289062 L 158.609375 227.386719 L 160.347656 227.039062 L 161.339844 227.039062 L 161.339844 233.496094 L 162.949219 233.496094 L 162.949219 234.328125 L 158.75 234.328125 L 158.75 233.496094 "/>
<path style=" stroke:none;fill-rule:nonzero;fill:rgb(0%,0%,0%);fill-opacity:1;" d="M 167.050781 227.6875 C 166.539062 227.6875 166.160156 227.9375 165.898438 228.4375 C 165.640625 228.9375 165.519531 229.6875 165.519531 230.6875 C 165.519531 231.6875 165.640625 232.4375 165.898438 232.9375 C 166.160156 233.4375 166.539062 233.6875 167.050781 233.6875 C 167.558594 233.6875 167.9375 233.4375 168.199219 232.9375 C 168.449219 232.4375 168.578125 231.6875 168.578125 230.6875 C 168.578125 229.6875 168.449219 228.9375 168.199219 228.4375 C 167.9375 227.9375 167.558594 227.6875 167.050781 227.6875 M 167.050781 226.90625 C 167.859375 226.90625 168.480469 227.238281 168.917969 227.878906 C 169.347656 228.527344 169.570312 229.46875 169.570312 230.6875 C 169.570312 231.917969 169.347656 232.859375 168.917969 233.496094 C 168.480469 234.136719 167.859375 234.457031 167.050781 234.457031 C 166.230469 234.457031 165.597656 234.136719 165.167969 233.496094 C 164.738281 232.859375 164.527344 231.917969 164.527344 230.6875 C 164.527344 229.46875 164.738281 228.527344 165.167969 227.878906 C 165.597656 227.238281 166.230469 226.90625 167.050781 226.90625 "/>
<path style=" stroke:none;fill-rule:nonzero;fill:rgb(0%,0%,0%);fill-opacity:1;" d="M 150.191406 230.777344 L 156.449219 230.777344 L 156.449219 231.609375 L 150.191406 231.609375 L 150.191406 230.777344 "/>
<path style="fill:none;stroke-width:0.8;stroke-linecap:butt;stroke-linejoin:round;stroke:rgb(0%,0%,0%);stroke-opacity:1;stroke-miterlimit:10;" d="M 221.398406 35.999525 L 221.398406 32.499525 " transform="matrix(1,0,0,-1,-13.8945,255.7339)"/>
<path style=" stroke:none;fill-rule:nonzero;fill:rgb(0%,0%,0%);fill-opacity:1;" d="M 207.503906 227.6875 C 206.996094 227.6875 206.617188 227.9375 206.355469 228.4375 C 206.097656 228.9375 205.976562 229.6875 205.976562 230.6875 C 205.976562 231.6875 206.097656 232.4375 206.355469 232.9375 C 206.617188 233.4375 206.996094 233.6875 207.503906 233.6875 C 208.015625 233.6875 208.394531 233.4375 208.65625 232.9375 C 208.90625 232.4375 209.035156 231.6875 209.035156 230.6875 C 209.035156 229.6875 208.90625 228.9375 208.65625 228.4375 C 208.394531 227.9375 208.015625 227.6875 207.503906 227.6875 M 207.503906 226.90625 C 208.316406 226.90625 208.9375 227.238281 209.375 227.878906 C 209.804688 228.527344 210.027344 229.46875 210.027344 230.6875 C 210.027344 231.917969 209.804688 232.859375 209.375 233.496094 C 208.9375 234.136719 208.316406 234.457031 207.503906 234.457031 C 206.6875 234.457031 206.054688 234.136719 205.625 233.496094 C 205.195312 232.859375 204.984375 231.917969 204.984375 230.6875 C 204.984375 229.46875 205.195312 228.527344 205.625 227.878906 C 206.054688 227.238281 206.6875 226.90625 207.503906 226.90625 "/>
<path style="fill:none;stroke-width:0.8;stroke-linecap:butt;stroke-linejoin:round;stroke:rgb(0%,0%,0%);stroke-opacity:1;stroke-miterlimit:10;" d="M 269.230437 35.999525 L 269.230437 32.499525 " transform="matrix(1,0,0,-1,-13.8945,255.7339)"/>
<path style=" stroke:none;fill-rule:nonzero;fill:rgb(0%,0%,0%);fill-opacity:1;" d="M 250.214844 233.496094 L 251.824219 233.496094 L 251.824219 227.9375 L 250.074219 228.289062 L 250.074219 227.386719 L 251.816406 227.039062 L 252.804688 227.039062 L 252.804688 233.496094 L 254.414062 233.496094 L 254.414062 234.328125 L 250.214844 234.328125 L 250.214844 233.496094 "/>
<path style=" stroke:none;fill-rule:nonzero;fill:rgb(0%,0%,0%);fill-opacity:1;" d="M 258.515625 227.6875 C 258.003906 227.6875 257.625 227.9375 257.363281 228.4375 C 257.105469 228.9375 256.984375 229.6875 256.984375 230.6875 C 256.984375 231.6875 257.105469 232.4375 257.363281 232.9375 C 257.625 233.4375 258.003906 233.6875 258.515625 233.6875 C 259.023438 233.6875 259.40625 233.4375 259.664062 232.9375 C 259.914062 232.4375 260.042969 231.6875 260.042969 230.6875 C 260.042969 229.6875 259.914062 228.9375 259.664062 228.4375 C 259.40625 227.9375 259.023438 227.6875 258.515625 227.6875 M 258.515625 226.90625 C 259.324219 226.90625 259.945312 227.238281 260.382812 227.878906 C 260.816406 228.527344 261.035156 229.46875 261.035156 230.6875 C 261.035156 231.917969 260.816406 232.859375 260.382812 233.496094 C 259.945312 234.136719 259.324219 234.457031 258.515625 234.457031 C 257.695312 234.457031 257.066406 234.136719 256.632812 233.496094 C 256.203125 232.859375 255.996094 231.917969 255.996094 230.6875 C 255.996094 229.46875 256.203125 228.527344 256.632812 227.878906 C 257.066406 227.238281 257.695312 226.90625 258.515625 226.90625 "/>
<path style="fill:none;stroke-width:0.8;stroke-linecap:butt;stroke-linejoin:round;stroke:rgb(0%,0%,0%);stroke-opacity:1;stroke-miterlimit:10;" d="M 317.058562 35.999525 L 317.058562 32.499525 " transform="matrix(1,0,0,-1,-13.8945,255.7339)"/>
<path style=" stroke:none;fill-rule:nonzero;fill:rgb(0%,0%,0%);fill-opacity:1;" d="M 298.722656 233.496094 L 302.164062 233.496094 L 302.164062 234.328125 L 297.535156 234.328125 L 297.535156 233.496094 C 297.902344 233.117188 298.414062 232.597656 299.0625 231.9375 C 299.703125 231.289062 300.113281 230.867188 300.285156 230.675781 C 300.601562 230.328125 300.824219 230.027344 300.941406 229.777344 C 301.0625 229.539062 301.132812 229.289062 301.132812 229.046875 C 301.132812 228.667969 300.992188 228.347656 300.722656 228.109375 C 300.453125 227.867188 300.101562 227.738281 299.664062 227.738281 C 299.351562 227.738281 299.023438 227.796875 298.683594 227.898438 C 298.34375 228.007812 297.972656 228.167969 297.582031 228.386719 L 297.582031 227.386719 C 297.984375 227.226562 298.351562 227.109375 298.691406 227.027344 C 299.035156 226.949219 299.351562 226.90625 299.644531 226.90625 C 300.394531 226.90625 300.992188 227.097656 301.441406 227.476562 C 301.894531 227.859375 302.125 228.359375 302.125 228.988281 C 302.125 229.289062 302.0625 229.578125 301.953125 229.835938 C 301.84375 230.109375 301.644531 230.425781 301.34375 230.789062 C 301.261719 230.886719 301.003906 231.15625 300.5625 231.609375 C 300.125 232.058594 299.511719 232.6875 298.722656 233.496094 "/>
<path style=" stroke:none;fill-rule:nonzero;fill:rgb(0%,0%,0%);fill-opacity:1;" d="M 306.34375 227.6875 C 305.832031 227.6875 305.453125 227.9375 305.191406 228.4375 C 304.933594 228.9375 304.8125 229.6875 304.8125 230.6875 C 304.8125 231.6875 304.933594 232.4375 305.191406 232.9375 C 305.453125 233.4375 305.832031 233.6875 306.34375 233.6875 C 306.851562 233.6875 307.234375 233.4375 307.492188 232.9375 C 307.742188 232.4375 307.875 231.6875 307.875 230.6875 C 307.875 229.6875 307.742188 228.9375 307.492188 228.4375 C 307.234375 227.9375 306.851562 227.6875 306.34375 227.6875 M 306.34375 226.90625 C 307.152344 226.90625 307.773438 227.238281 308.214844 227.878906 C 308.644531 228.527344 308.863281 229.46875 308.863281 230.6875 C 308.863281 231.917969 308.644531 232.859375 308.214844 233.496094 C 307.773438 234.136719 307.152344 234.457031 306.34375 234.457031 C 305.523438 234.457031 304.894531 234.136719 304.464844 233.496094 C 304.035156 232.859375 303.824219 231.917969 303.824219 230.6875 C 303.824219 229.46875 304.035156 228.527344 304.464844 227.878906 C 304.894531 227.238281 305.523438 226.90625 306.34375 226.90625 "/>
<path style="fill:none;stroke-width:0.8;stroke-linecap:butt;stroke-linejoin:round;stroke:rgb(0%,0%,0%);stroke-opacity:1;stroke-miterlimit:10;" d="M 364.886687 35.999525 L 364.886687 32.499525 " transform="matrix(1,0,0,-1,-13.8945,255.7339)"/>
<path style=" stroke:none;fill-rule:nonzero;fill:rgb(0%,0%,0%);fill-opacity:1;" d="M 348.691406 230.398438 C 349.160156 230.496094 349.53125 230.707031 349.792969 231.027344 C 350.050781 231.347656 350.191406 231.746094 350.191406 232.207031 C 350.191406 232.925781 349.941406 233.488281 349.453125 233.878906 C 348.953125 234.269531 348.25 234.457031 347.34375 234.457031 C 347.03125 234.457031 346.710938 234.425781 346.390625 234.367188 C 346.070312 234.316406 345.730469 234.226562 345.390625 234.109375 L 345.390625 233.15625 C 345.660156 233.316406 345.960938 233.4375 346.292969 233.519531 C 346.613281 233.597656 346.953125 233.636719 347.3125 233.636719 C 347.933594 233.636719 348.402344 233.519531 348.722656 233.277344 C 349.042969 233.039062 349.210938 232.675781 349.210938 232.207031 C 349.210938 231.789062 349.0625 231.449219 348.761719 231.207031 C 348.460938 230.96875 348.042969 230.835938 347.5 230.835938 L 346.652344 230.835938 L 346.652344 230.027344 L 347.542969 230.027344 C 348.023438 230.027344 348.390625 229.9375 348.652344 229.738281 C 348.910156 229.546875 349.042969 229.269531 349.042969 228.898438 C 349.042969 228.527344 348.902344 228.238281 348.640625 228.039062 C 348.371094 227.835938 347.992188 227.738281 347.5 227.738281 C 347.230469 227.738281 346.941406 227.769531 346.632812 227.828125 C 346.320312 227.886719 345.980469 227.976562 345.613281 228.097656 L 345.613281 227.21875 C 345.980469 227.117188 346.332031 227.039062 346.660156 226.988281 C 346.980469 226.9375 347.292969 226.90625 347.59375 226.90625 C 348.332031 226.90625 348.921875 227.078125 349.363281 227.417969 C 349.800781 227.757812 350.023438 228.21875 350.023438 228.796875 C 350.023438 229.199219 349.902344 229.539062 349.671875 229.816406 C 349.441406 230.097656 349.113281 230.296875 348.691406 230.398438 "/>
<path style=" stroke:none;fill-rule:nonzero;fill:rgb(0%,0%,0%);fill-opacity:1;" d="M 354.171875 227.6875 C 353.660156 227.6875 353.28125 227.9375 353.023438 228.4375 C 352.761719 228.9375 352.640625 229.6875 352.640625 230.6875 C 352.640625 231.6875 352.761719 232.4375 353.023438 232.9375 C 353.28125 233.4375 353.660156 233.6875 354.171875 233.6875 C 354.683594 233.6875 355.0625 233.4375 355.320312 232.9375 C 355.570312 232.4375 355.703125 231.6875 355.703125 230.6875 C 355.703125 229.6875 355.570312 228.9375 355.320312 228.4375 C 355.0625 227.9375 354.683594 227.6875 354.171875 227.6875 M 354.171875 226.90625 C 354.980469 226.90625 355.601562 227.238281 356.042969 227.878906 C 356.472656 228.527344 356.691406 229.46875 356.691406 230.6875 C 356.691406 231.917969 356.472656 232.859375 356.042969 233.496094 C 355.601562 234.136719 354.980469 234.457031 354.171875 234.457031 C 353.351562 234.457031 352.722656 234.136719 352.292969 233.496094 C 351.863281 232.859375 351.652344 231.917969 351.652344 230.6875 C 351.652344 229.46875 351.863281 228.527344 352.292969 227.878906 C 352.722656 227.238281 353.351562 226.90625 354.171875 226.90625 "/>
<path style=" stroke:none;fill-rule:nonzero;fill:rgb(0%,0%,0%);fill-opacity:1;" d="M 142.453125 241.519531 L 142.453125 247.191406 L 143.640625 247.191406 C 144.640625 247.191406 145.382812 246.96875 145.851562 246.507812 C 146.3125 246.050781 146.550781 245.328125 146.550781 244.347656 C 146.550781 243.371094 146.3125 242.660156 145.851562 242.199219 C 145.382812 241.75 144.640625 241.519531 143.640625 241.519531 L 142.453125 241.519531 M 141.460938 240.710938 L 143.492188 240.710938 C 144.902344 240.710938 145.941406 241.007812 146.601562 241.589844 C 147.261719 242.179688 147.59375 243.097656 147.59375 244.347656 C 147.59375 245.609375 147.253906 246.53125 146.59375 247.121094 C 145.933594 247.710938 144.890625 248 143.492188 248 L 141.460938 248 L 141.460938 240.710938 "/>
<path style=" stroke:none;fill-rule:nonzero;fill:rgb(0%,0%,0%);fill-opacity:1;" d="M 149.121094 242.53125 L 150.023438 242.53125 L 150.023438 248 L 149.121094 248 L 149.121094 242.53125 M 149.121094 240.398438 L 150.023438 240.398438 L 150.023438 241.539062 L 149.121094 241.539062 L 149.121094 240.398438 "/>
<path style=" stroke:none;fill-rule:nonzero;fill:rgb(0%,0%,0%);fill-opacity:1;" d="M 156.160156 243.578125 C 156.382812 243.179688 156.652344 242.890625 156.960938 242.691406 C 157.273438 242.5 157.640625 242.398438 158.070312 242.398438 C 158.632812 242.398438 159.070312 242.597656 159.382812 243 C 159.691406 243.398438 159.851562 243.96875 159.851562 244.699219 L 159.851562 248 L 158.953125 248 L 158.953125 244.730469 C 158.953125 244.210938 158.851562 243.820312 158.671875 243.558594 C 158.480469 243.308594 158.203125 243.179688 157.820312 243.179688 C 157.351562 243.179688 156.980469 243.339844 156.710938 243.648438 C 156.441406 243.960938 156.3125 244.378906 156.3125 244.910156 L 156.3125 248 L 155.410156 248 L 155.410156 244.730469 C 155.410156 244.210938 155.3125 243.820312 155.132812 243.558594 C 154.941406 243.308594 154.652344 243.179688 154.273438 243.179688 C 153.8125 243.179688 153.441406 243.339844 153.171875 243.648438 C 152.902344 243.960938 152.773438 244.378906 152.773438 244.910156 L 152.773438 248 L 151.871094 248 L 151.871094 242.53125 L 152.773438 242.53125 L 152.773438 243.378906 C 152.972656 243.050781 153.222656 242.800781 153.511719 242.640625 C 153.792969 242.480469 154.132812 242.398438 154.53125 242.398438 C 154.933594 242.398438 155.261719 242.5 155.542969 242.699219 C 155.820312 242.898438 156.023438 243.199219 156.160156 243.578125 "/>
<path style=" stroke:none;fill-rule:nonzero;fill:rgb(0%,0%,0%);fill-opacity:1;" d="M 166.320312 245.039062 L 166.320312 245.480469 L 162.191406 245.480469 C 162.230469 246.097656 162.410156 246.578125 162.753906 246.898438 C 163.082031 247.21875 163.542969 247.378906 164.140625 247.378906 C 164.480469 247.378906 164.820312 247.339844 165.140625 247.257812 C 165.460938 247.179688 165.792969 247.050781 166.113281 246.871094 L 166.113281 247.71875 C 165.792969 247.859375 165.460938 247.96875 165.121094 248.03125 C 164.78125 248.089844 164.433594 248.128906 164.09375 248.128906 C 163.210938 248.128906 162.523438 247.878906 162.011719 247.378906 C 161.503906 246.878906 161.253906 246.191406 161.253906 245.320312 C 161.253906 244.429688 161.492188 243.71875 161.972656 243.191406 C 162.453125 242.667969 163.113281 242.398438 163.933594 242.398438 C 164.671875 242.398438 165.253906 242.640625 165.683594 243.109375 C 166.101562 243.589844 166.320312 244.230469 166.320312 245.039062 M 165.421875 244.78125 C 165.410156 244.289062 165.273438 243.898438 165.011719 243.597656 C 164.742188 243.308594 164.382812 243.160156 163.941406 243.160156 C 163.441406 243.160156 163.042969 243.308594 162.742188 243.589844 C 162.441406 243.871094 162.261719 244.269531 162.222656 244.78125 L 165.421875 244.78125 "/>
<path style=" stroke:none;fill-rule:nonzero;fill:rgb(0%,0%,0%);fill-opacity:1;" d="M 172.34375 244.699219 L 172.34375 248 L 171.441406 248 L 171.441406 244.730469 C 171.441406 244.210938 171.332031 243.828125 171.132812 243.570312 C 170.933594 243.308594 170.632812 243.179688 170.230469 243.179688 C 169.742188 243.179688 169.363281 243.339844 169.082031 243.648438 C 168.800781 243.960938 168.660156 244.378906 168.660156 244.910156 L 168.660156 248 L 167.761719 248 L 167.761719 242.53125 L 168.660156 242.53125 L 168.660156 243.378906 C 168.871094 243.058594 169.121094 242.808594 169.421875 242.648438 C 169.710938 242.488281 170.050781 242.398438 170.433594 242.398438 C 171.050781 242.398438 171.53125 242.597656 171.851562 242.988281 C 172.171875 243.378906 172.34375 243.949219 172.34375 244.699219 "/>
<path style=" stroke:none;fill-rule:nonzero;fill:rgb(0%,0%,0%);fill-opacity:1;" d="M 177.621094 242.691406 L 177.621094 243.539062 C 177.363281 243.417969 177.101562 243.320312 176.832031 243.25 C 176.550781 243.191406 176.273438 243.148438 175.980469 243.148438 C 175.53125 243.148438 175.191406 243.21875 174.972656 243.359375 C 174.753906 243.5 174.640625 243.699219 174.640625 243.96875 C 174.640625 244.179688 174.722656 244.339844 174.882812 244.460938 C 175.042969 244.578125 175.363281 244.699219 175.84375 244.800781 L 176.152344 244.871094 C 176.792969 245.007812 177.242188 245.210938 177.511719 245.449219 C 177.773438 245.699219 177.910156 246.050781 177.910156 246.488281 C 177.910156 247 177.710938 247.398438 177.3125 247.691406 C 176.910156 247.988281 176.351562 248.128906 175.652344 248.128906 C 175.351562 248.128906 175.050781 248.097656 174.730469 248.050781 C 174.410156 248 174.082031 247.917969 173.730469 247.800781 L 173.730469 246.871094 C 174.0625 247.050781 174.390625 247.179688 174.710938 247.257812 C 175.03125 247.347656 175.351562 247.390625 175.671875 247.390625 C 176.09375 247.390625 176.421875 247.320312 176.652344 247.179688 C 176.871094 247.039062 176.992188 246.828125 176.992188 246.558594 C 176.992188 246.320312 176.902344 246.128906 176.742188 246 C 176.582031 245.871094 176.222656 245.738281 175.660156 245.621094 L 175.351562 245.550781 C 174.792969 245.429688 174.382812 245.25 174.140625 245.007812 C 173.890625 244.769531 173.773438 244.441406 173.773438 244.007812 C 173.773438 243.5 173.953125 243.097656 174.3125 242.820312 C 174.671875 242.539062 175.191406 242.398438 175.871094 242.398438 C 176.203125 242.398438 176.511719 242.429688 176.8125 242.480469 C 177.101562 242.53125 177.371094 242.597656 177.621094 242.691406 "/>
<path style=" stroke:none;fill-rule:nonzero;fill:rgb(0%,0%,0%);fill-opacity:1;" d="M 179.34375 242.53125 L 180.242188 242.53125 L 180.242188 248 L 179.34375 248 L 179.34375 242.53125 M 179.34375 240.398438 L 180.242188 240.398438 L 180.242188 241.539062 L 179.34375 241.539062 L 179.34375 240.398438 "/>
<path style=" stroke:none;fill-rule:nonzero;fill:rgb(0%,0%,0%);fill-opacity:1;" d="M 184.242188 243.160156 C 183.761719 243.160156 183.382812 243.347656 183.101562 243.730469 C 182.820312 244.109375 182.683594 244.621094 182.683594 245.269531 C 182.683594 245.929688 182.8125 246.441406 183.09375 246.820312 C 183.371094 247.199219 183.753906 247.378906 184.242188 247.378906 C 184.722656 247.378906 185.101562 247.199219 185.382812 246.820312 C 185.660156 246.441406 185.800781 245.929688 185.800781 245.269531 C 185.800781 244.628906 185.660156 244.109375 185.382812 243.730469 C 185.101562 243.347656 184.722656 243.160156 184.242188 243.160156 M 184.242188 242.398438 C 185.023438 242.398438 185.632812 242.660156 186.082031 243.160156 C 186.523438 243.667969 186.753906 244.371094 186.753906 245.269531 C 186.753906 246.167969 186.523438 246.871094 186.082031 247.371094 C 185.632812 247.878906 185.023438 248.128906 184.242188 248.128906 C 183.453125 248.128906 182.832031 247.878906 182.390625 247.371094 C 181.953125 246.871094 181.730469 246.167969 181.730469 245.269531 C 181.730469 244.371094 181.953125 243.667969 182.390625 243.160156 C 182.832031 242.660156 183.453125 242.398438 184.242188 242.398438 "/>
<path style=" stroke:none;fill-rule:nonzero;fill:rgb(0%,0%,0%);fill-opacity:1;" d="M 192.792969 244.699219 L 192.792969 248 L 191.890625 248 L 191.890625 244.730469 C 191.890625 244.210938 191.78125 243.828125 191.582031 243.570312 C 191.382812 243.308594 191.082031 243.179688 190.683594 243.179688 C 190.191406 243.179688 189.8125 243.339844 189.53125 243.648438 C 189.253906 243.960938 189.113281 244.378906 189.113281 244.910156 L 189.113281 248 L 188.210938 248 L 188.210938 242.53125 L 189.113281 242.53125 L 189.113281 243.378906 C 189.320312 243.058594 189.570312 242.808594 189.871094 242.648438 C 190.160156 242.488281 190.503906 242.398438 190.882812 242.398438 C 191.503906 242.398438 191.980469 242.597656 192.300781 242.988281 C 192.621094 243.378906 192.792969 243.949219 192.792969 244.699219 "/>
<path style=" stroke:none;fill-rule:nonzero;fill:rgb(0%,0%,0%);fill-opacity:1;" d="M 194.582031 240.398438 L 195.480469 240.398438 L 195.480469 248 L 194.582031 248 L 194.582031 240.398438 "/>
<path style=" stroke:none;fill-rule:nonzero;fill:rgb(0%,0%,0%);fill-opacity:1;" d="M 202.042969 245.039062 L 202.042969 245.480469 L 197.910156 245.480469 C 197.953125 246.097656 198.132812 246.578125 198.472656 246.898438 C 198.800781 247.21875 199.261719 247.378906 199.863281 247.378906 C 200.203125 247.378906 200.542969 247.339844 200.863281 247.257812 C 201.183594 247.179688 201.511719 247.050781 201.832031 246.871094 L 201.832031 247.71875 C 201.511719 247.859375 201.183594 247.96875 200.84375 248.03125 C 200.503906 248.089844 200.152344 248.128906 199.8125 248.128906 C 198.933594 248.128906 198.242188 247.878906 197.730469 247.378906 C 197.222656 246.878906 196.972656 246.191406 196.972656 245.320312 C 196.972656 244.429688 197.210938 243.71875 197.691406 243.191406 C 198.171875 242.667969 198.832031 242.398438 199.652344 242.398438 C 200.390625 242.398438 200.972656 242.640625 201.402344 243.109375 C 201.820312 243.589844 202.042969 244.230469 202.042969 245.039062 M 201.140625 244.78125 C 201.132812 244.289062 200.992188 243.898438 200.730469 243.597656 C 200.460938 243.308594 200.101562 243.160156 199.660156 243.160156 C 199.160156 243.160156 198.761719 243.308594 198.460938 243.589844 C 198.160156 243.871094 197.980469 244.269531 197.941406 244.78125 L 201.140625 244.78125 "/>
<path style=" stroke:none;fill-rule:nonzero;fill:rgb(0%,0%,0%);fill-opacity:1;" d="M 207.003906 242.691406 L 207.003906 243.539062 C 206.742188 243.417969 206.480469 243.320312 206.210938 243.25 C 205.933594 243.191406 205.652344 243.148438 205.363281 243.148438 C 204.910156 243.148438 204.570312 243.21875 204.351562 243.359375 C 204.132812 243.5 204.023438 243.699219 204.023438 243.96875 C 204.023438 244.179688 204.101562 244.339844 204.261719 244.460938 C 204.421875 244.578125 204.742188 244.699219 205.222656 244.800781 L 205.53125 244.871094 C 206.171875 245.007812 206.621094 245.210938 206.890625 245.449219 C 207.152344 245.699219 207.292969 246.050781 207.292969 246.488281 C 207.292969 247 207.09375 247.398438 206.691406 247.691406 C 206.292969 247.988281 205.730469 248.128906 205.03125 248.128906 C 204.730469 248.128906 204.433594 248.097656 204.113281 248.050781 C 203.792969 248 203.460938 247.917969 203.113281 247.800781 L 203.113281 246.871094 C 203.441406 247.050781 203.773438 247.179688 204.09375 247.257812 C 204.410156 247.347656 204.730469 247.390625 205.050781 247.390625 C 205.472656 247.390625 205.800781 247.320312 206.03125 247.179688 C 206.253906 247.039062 206.371094 246.828125 206.371094 246.558594 C 206.371094 246.320312 206.28125 246.128906 206.121094 246 C 205.960938 245.871094 205.601562 245.738281 205.042969 245.621094 L 204.730469 245.550781 C 204.171875 245.429688 203.761719 245.25 203.523438 245.007812 C 203.273438 244.769531 203.152344 244.441406 203.152344 244.007812 C 203.152344 243.5 203.332031 243.097656 203.691406 242.820312 C 204.050781 242.539062 204.570312 242.398438 205.253906 242.398438 C 205.582031 242.398438 205.890625 242.429688 206.191406 242.480469 C 206.480469 242.53125 206.753906 242.597656 207.003906 242.691406 "/>
<path style=" stroke:none;fill-rule:nonzero;fill:rgb(0%,0%,0%);fill-opacity:1;" d="M 212.210938 242.691406 L 212.210938 243.539062 C 211.953125 243.417969 211.691406 243.320312 211.421875 243.25 C 211.140625 243.191406 210.863281 243.148438 210.570312 243.148438 C 210.121094 243.148438 209.78125 243.21875 209.5625 243.359375 C 209.34375 243.5 209.230469 243.699219 209.230469 243.96875 C 209.230469 244.179688 209.3125 244.339844 209.472656 244.460938 C 209.632812 244.578125 209.953125 244.699219 210.433594 244.800781 L 210.742188 244.871094 C 211.382812 245.007812 211.832031 245.210938 212.101562 245.449219 C 212.363281 245.699219 212.503906 246.050781 212.503906 246.488281 C 212.503906 247 212.300781 247.398438 211.902344 247.691406 C 211.503906 247.988281 210.941406 248.128906 210.242188 248.128906 C 209.941406 248.128906 209.640625 248.097656 209.320312 248.050781 C 209.003906 248 208.671875 247.917969 208.320312 247.800781 L 208.320312 246.871094 C 208.652344 247.050781 208.980469 247.179688 209.300781 247.257812 C 209.621094 247.347656 209.941406 247.390625 210.261719 247.390625 C 210.683594 247.390625 211.011719 247.320312 211.242188 247.179688 C 211.460938 247.039062 211.582031 246.828125 211.582031 246.558594 C 211.582031 246.320312 211.492188 246.128906 211.332031 246 C 211.171875 245.871094 210.8125 245.738281 210.253906 245.621094 L 209.941406 245.550781 C 209.382812 245.429688 208.972656 245.25 208.730469 245.007812 C 208.480469 244.769531 208.363281 244.441406 208.363281 244.007812 C 208.363281 243.5 208.542969 243.097656 208.902344 242.820312 C 209.261719 242.539062 209.78125 242.398438 210.460938 242.398438 C 210.792969 242.398438 211.101562 242.429688 211.402344 242.480469 C 211.691406 242.53125 211.960938 242.597656 212.210938 242.691406 "/>
<path style=" stroke:none;fill-rule:nonzero;fill:rgb(0%,0%,0%);fill-opacity:1;" d="M 216.59375 242.53125 L 217.492188 242.53125 L 218.613281 246.800781 L 219.730469 242.53125 L 220.792969 242.53125 L 221.910156 246.800781 L 223.03125 242.53125 L 223.933594 242.53125 L 222.503906 248 L 221.441406 248 L 220.261719 243.519531 L 219.082031 248 L 218.023438 248 L 216.59375 242.53125 "/>
<path style=" stroke:none;fill-rule:nonzero;fill:rgb(0%,0%,0%);fill-opacity:1;" d="M 227.78125 245.25 C 227.050781 245.25 226.550781 245.339844 226.273438 245.5 C 225.992188 245.667969 225.851562 245.949219 225.851562 246.347656 C 225.851562 246.667969 225.953125 246.929688 226.160156 247.109375 C 226.371094 247.300781 226.660156 247.390625 227.023438 247.390625 C 227.523438 247.390625 227.921875 247.21875 228.222656 246.859375 C 228.523438 246.507812 228.671875 246.039062 228.671875 245.449219 L 228.671875 245.25 L 227.78125 245.25 M 229.570312 244.878906 L 229.570312 248 L 228.671875 248 L 228.671875 247.167969 C 228.460938 247.507812 228.203125 247.75 227.902344 247.898438 C 227.601562 248.050781 227.222656 248.128906 226.78125 248.128906 C 226.222656 248.128906 225.773438 247.980469 225.441406 247.667969 C 225.113281 247.359375 224.953125 246.941406 224.953125 246.410156 C 224.953125 245.800781 225.152344 245.339844 225.570312 245.019531 C 225.980469 244.710938 226.59375 244.550781 227.410156 244.550781 L 228.671875 244.550781 L 228.671875 244.460938 C 228.671875 244.050781 228.53125 243.730469 228.261719 243.5 C 227.992188 243.28125 227.613281 243.160156 227.121094 243.160156 C 226.800781 243.160156 226.503906 243.199219 226.203125 243.28125 C 225.902344 243.359375 225.621094 243.46875 225.351562 243.609375 L 225.351562 242.78125 C 225.671875 242.660156 225.992188 242.558594 226.300781 242.5 C 226.613281 242.441406 226.910156 242.398438 227.210938 242.398438 C 228.003906 242.398438 228.59375 242.609375 228.980469 243.019531 C 229.371094 243.429688 229.570312 244.050781 229.570312 244.878906 "/>
<path style=" stroke:none;fill-rule:nonzero;fill:rgb(0%,0%,0%);fill-opacity:1;" d="M 230.78125 242.53125 L 231.730469 242.53125 L 233.441406 247.121094 L 235.152344 242.53125 L 236.101562 242.53125 L 234.050781 248 L 232.832031 248 L 230.78125 242.53125 "/>
<path style=" stroke:none;fill-rule:nonzero;fill:rgb(0%,0%,0%);fill-opacity:1;" d="M 242.023438 245.039062 L 242.023438 245.480469 L 237.890625 245.480469 C 237.933594 246.097656 238.113281 246.578125 238.453125 246.898438 C 238.78125 247.21875 239.242188 247.378906 239.84375 247.378906 C 240.183594 247.378906 240.523438 247.339844 240.84375 247.257812 C 241.160156 247.179688 241.492188 247.050781 241.8125 246.871094 L 241.8125 247.71875 C 241.492188 247.859375 241.160156 247.96875 240.820312 248.03125 C 240.480469 248.089844 240.132812 248.128906 239.792969 248.128906 C 238.910156 248.128906 238.222656 247.878906 237.710938 247.378906 C 237.203125 246.878906 236.953125 246.191406 236.953125 245.320312 C 236.953125 244.429688 237.191406 243.71875 237.671875 243.191406 C 238.152344 242.667969 238.8125 242.398438 239.632812 242.398438 C 240.371094 242.398438 240.953125 242.640625 241.382812 243.109375 C 241.800781 243.589844 242.023438 244.230469 242.023438 245.039062 M 241.121094 244.78125 C 241.113281 244.289062 240.972656 243.898438 240.710938 243.597656 C 240.441406 243.308594 240.082031 243.160156 239.640625 243.160156 C 239.140625 243.160156 238.742188 243.308594 238.441406 243.589844 C 238.140625 243.871094 237.960938 244.269531 237.921875 244.78125 L 241.121094 244.78125 "/>
<path style=" stroke:none;fill-rule:nonzero;fill:rgb(0%,0%,0%);fill-opacity:1;" d="M 243.492188 240.398438 L 244.390625 240.398438 L 244.390625 248 L 243.492188 248 L 243.492188 240.398438 "/>
<path style=" stroke:none;fill-rule:nonzero;fill:rgb(0%,0%,0%);fill-opacity:1;" d="M 250.953125 245.039062 L 250.953125 245.480469 L 246.820312 245.480469 C 246.863281 246.097656 247.042969 246.578125 247.382812 246.898438 C 247.710938 247.21875 248.171875 247.378906 248.773438 247.378906 C 249.113281 247.378906 249.453125 247.339844 249.773438 247.257812 C 250.09375 247.179688 250.421875 247.050781 250.742188 246.871094 L 250.742188 247.71875 C 250.421875 247.859375 250.09375 247.96875 249.753906 248.03125 C 249.410156 248.089844 249.0625 248.128906 248.722656 248.128906 C 247.84375 248.128906 247.152344 247.878906 246.640625 247.378906 C 246.132812 246.878906 245.882812 246.191406 245.882812 245.320312 C 245.882812 244.429688 246.121094 243.71875 246.601562 243.191406 C 247.082031 242.667969 247.742188 242.398438 248.5625 242.398438 C 249.300781 242.398438 249.882812 242.640625 250.3125 243.109375 C 250.730469 243.589844 250.953125 244.230469 250.953125 245.039062 M 250.050781 244.78125 C 250.042969 244.289062 249.902344 243.898438 249.640625 243.597656 C 249.371094 243.308594 249.011719 243.160156 248.570312 243.160156 C 248.070312 243.160156 247.671875 243.308594 247.371094 243.589844 C 247.070312 243.871094 246.890625 244.269531 246.851562 244.78125 L 250.050781 244.78125 "/>
<path style=" stroke:none;fill-rule:nonzero;fill:rgb(0%,0%,0%);fill-opacity:1;" d="M 256.972656 244.699219 L 256.972656 248 L 256.070312 248 L 256.070312 244.730469 C 256.070312 244.210938 255.960938 243.828125 255.761719 243.570312 C 255.5625 243.308594 255.261719 243.179688 254.863281 243.179688 C 254.371094 243.179688 253.992188 243.339844 253.710938 243.648438 C 253.433594 243.960938 253.292969 244.378906 253.292969 244.910156 L 253.292969 248 L 252.390625 248 L 252.390625 242.53125 L 253.292969 242.53125 L 253.292969 243.378906 C 253.503906 243.058594 253.753906 242.808594 254.050781 242.648438 C 254.34375 242.488281 254.683594 242.398438 255.0625 242.398438 C 255.683594 242.398438 256.160156 242.597656 256.480469 242.988281 C 256.800781 243.378906 256.972656 243.949219 256.972656 244.699219 "/>
<path style=" stroke:none;fill-rule:nonzero;fill:rgb(0%,0%,0%);fill-opacity:1;" d="M 262.363281 245.199219 C 262.363281 244.558594 262.222656 244.050781 261.960938 243.691406 C 261.691406 243.328125 261.3125 243.148438 260.832031 243.148438 C 260.351562 243.148438 259.972656 243.328125 259.703125 243.691406 C 259.433594 244.050781 259.300781 244.558594 259.300781 245.199219 C 259.300781 245.847656 259.433594 246.347656 259.703125 246.710938 C 259.972656 247.070312 260.351562 247.25 260.832031 247.25 C 261.3125 247.25 261.691406 247.070312 261.960938 246.710938 C 262.222656 246.347656 262.363281 245.847656 262.363281 245.199219 M 263.261719 247.320312 C 263.261719 248.238281 263.050781 248.929688 262.640625 249.390625 C 262.222656 249.839844 261.59375 250.070312 260.742188 250.070312 C 260.421875 250.070312 260.132812 250.039062 259.851562 250 C 259.570312 249.949219 259.292969 249.878906 259.03125 249.78125 L 259.03125 248.910156 C 259.292969 249.050781 259.550781 249.148438 259.8125 249.21875 C 260.070312 249.289062 260.332031 249.328125 260.601562 249.328125 C 261.183594 249.328125 261.621094 249.167969 261.921875 248.871094 C 262.210938 248.558594 262.363281 248.097656 262.363281 247.480469 L 262.363281 247.039062 C 262.171875 247.359375 261.933594 247.597656 261.640625 247.757812 C 261.351562 247.917969 261.011719 248 260.613281 248 C 259.933594 248 259.390625 247.75 258.980469 247.238281 C 258.570312 246.730469 258.371094 246.050781 258.371094 245.199219 C 258.371094 244.359375 258.570312 243.679688 258.980469 243.167969 C 259.390625 242.660156 259.933594 242.398438 260.613281 242.398438 C 261.011719 242.398438 261.351562 242.480469 261.640625 242.640625 C 261.933594 242.800781 262.171875 243.039062 262.363281 243.359375 L 262.363281 242.53125 L 263.261719 242.53125 L 263.261719 247.320312 "/>
<path style=" stroke:none;fill-rule:nonzero;fill:rgb(0%,0%,0%);fill-opacity:1;" d="M 266.003906 240.980469 L 266.003906 242.53125 L 267.851562 242.53125 L 267.851562 243.230469 L 266.003906 243.230469 L 266.003906 246.199219 C 266.003906 246.648438 266.0625 246.941406 266.183594 247.058594 C 266.300781 247.191406 266.550781 247.25 266.933594 247.25 L 267.851562 247.25 L 267.851562 248 L 266.933594 248 C 266.230469 248 265.753906 247.871094 265.492188 247.609375 C 265.230469 247.347656 265.101562 246.878906 265.101562 246.199219 L 265.101562 243.230469 L 264.441406 243.230469 L 264.441406 242.53125 L 265.101562 242.53125 L 265.101562 240.980469 L 266.003906 240.980469 "/>
<path style=" stroke:none;fill-rule:nonzero;fill:rgb(0%,0%,0%);fill-opacity:1;" d="M 273.582031 244.699219 L 273.582031 248 L 272.683594 248 L 272.683594 244.730469 C 272.683594 244.210938 272.570312 243.828125 272.371094 243.570312 C 272.171875 243.308594 271.871094 243.179688 271.472656 243.179688 C 270.980469 243.179688 270.601562 243.339844 270.320312 243.648438 C 270.042969 243.960938 269.902344 244.378906 269.902344 244.910156 L 269.902344 248 L 269.003906 248 L 269.003906 240.398438 L 269.902344 240.398438 L 269.902344 243.378906 C 270.113281 243.058594 270.363281 242.808594 270.660156 242.648438 C 270.953125 242.488281 271.292969 242.398438 271.671875 242.398438 C 272.292969 242.398438 272.773438 242.597656 273.09375 242.988281 C 273.410156 243.378906 273.582031 243.949219 273.582031 244.699219 "/>
<path style="fill:none;stroke-width:0.8;stroke-linecap:butt;stroke-linejoin:round;stroke:rgb(0%,0%,0%);stroke-opacity:1;stroke-miterlimit:10;" d="M 53.999969 35.999525 L 50.499969 35.999525 " transform="matrix(1,0,0,-1,-13.8945,255.7339)"/>
<path style=" stroke:none;fill-rule:nonzero;fill:rgb(0%,0%,0%);fill-opacity:1;" d="M 20.378906 216.890625 C 19.871094 216.890625 19.488281 217.140625 19.230469 217.640625 C 18.96875 218.140625 18.847656 218.890625 18.847656 219.890625 C 18.847656 220.890625 18.96875 221.640625 19.230469 222.140625 C 19.488281 222.640625 19.871094 222.890625 20.378906 222.890625 C 20.890625 222.890625 21.269531 222.640625 21.527344 222.140625 C 21.777344 221.640625 21.910156 220.890625 21.910156 219.890625 C 21.910156 218.890625 21.777344 218.140625 21.527344 217.640625 C 21.269531 217.140625 20.890625 216.890625 20.378906 216.890625 M 20.378906 216.109375 C 21.1875 216.109375 21.808594 216.441406 22.25 217.082031 C 22.679688 217.730469 22.898438 218.671875 22.898438 219.890625 C 22.898438 221.121094 22.679688 222.0625 22.25 222.699219 C 21.808594 223.339844 21.1875 223.660156 20.378906 223.660156 C 19.558594 223.660156 18.929688 223.339844 18.5 222.699219 C 18.070312 222.0625 17.859375 221.121094 17.859375 219.890625 C 17.859375 218.671875 18.070312 217.730469 18.5 217.082031 C 18.929688 216.441406 19.558594 216.109375 20.378906 216.109375 "/>
<path style=" stroke:none;fill-rule:nonzero;fill:rgb(0%,0%,0%);fill-opacity:1;" d="M 24.628906 222.289062 L 25.660156 222.289062 L 25.660156 223.53125 L 24.628906 223.53125 L 24.628906 222.289062 "/>
<path style=" stroke:none;fill-rule:nonzero;fill:rgb(0%,0%,0%);fill-opacity:1;" d="M 29.917969 216.890625 C 29.410156 216.890625 29.027344 217.140625 28.769531 217.640625 C 28.507812 218.140625 28.390625 218.890625 28.390625 219.890625 C 28.390625 220.890625 28.507812 221.640625 28.769531 222.140625 C 29.027344 222.640625 29.410156 222.890625 29.917969 222.890625 C 30.429688 222.890625 30.808594 222.640625 31.070312 222.140625 C 31.320312 221.640625 31.449219 220.890625 31.449219 219.890625 C 31.449219 218.890625 31.320312 218.140625 31.070312 217.640625 C 30.808594 217.140625 30.429688 216.890625 29.917969 216.890625 M 29.917969 216.109375 C 30.730469 216.109375 31.347656 216.441406 31.789062 217.082031 C 32.21875 217.730469 32.4375 218.671875 32.4375 219.890625 C 32.4375 221.121094 32.21875 222.0625 31.789062 222.699219 C 31.347656 223.339844 30.730469 223.660156 29.917969 223.660156 C 29.097656 223.660156 28.46875 223.339844 28.039062 222.699219 C 27.609375 222.0625 27.398438 221.121094 27.398438 219.890625 C 27.398438 218.671875 27.609375 217.730469 28.039062 217.082031 C 28.46875 216.441406 29.097656 216.109375 29.917969 216.109375 "/>
<path style="fill:none;stroke-width:0.8;stroke-linecap:butt;stroke-linejoin:round;stroke:rgb(0%,0%,0%);stroke-opacity:1;stroke-miterlimit:10;" d="M 53.999969 73.167494 L 50.499969 73.167494 " transform="matrix(1,0,0,-1,-13.8945,255.7339)"/>
<path style=" stroke:none;fill-rule:nonzero;fill:rgb(0%,0%,0%);fill-opacity:1;" d="M 20.378906 179.722656 C 19.871094 179.722656 19.488281 179.972656 19.230469 180.472656 C 18.96875 180.972656 18.847656 181.722656 18.847656 182.722656 C 18.847656 183.722656 18.96875 184.472656 19.230469 184.972656 C 19.488281 185.472656 19.871094 185.722656 20.378906 185.722656 C 20.890625 185.722656 21.269531 185.472656 21.527344 184.972656 C 21.777344 184.472656 21.910156 183.722656 21.910156 182.722656 C 21.910156 181.722656 21.777344 180.972656 21.527344 180.472656 C 21.269531 179.972656 20.890625 179.722656 20.378906 179.722656 M 20.378906 178.941406 C 21.1875 178.941406 21.808594 179.273438 22.25 179.910156 C 22.679688 180.5625 22.898438 181.5 22.898438 182.722656 C 22.898438 183.953125 22.679688 184.890625 22.25 185.53125 C 21.808594 186.171875 21.1875 186.492188 20.378906 186.492188 C 19.558594 186.492188 18.929688 186.171875 18.5 185.53125 C 18.070312 184.890625 17.859375 183.953125 17.859375 182.722656 C 17.859375 181.5 18.070312 180.5625 18.5 179.910156 C 18.929688 179.273438 19.558594 178.941406 20.378906 178.941406 "/>
<path style=" stroke:none;fill-rule:nonzero;fill:rgb(0%,0%,0%);fill-opacity:1;" d="M 24.628906 185.121094 L 25.660156 185.121094 L 25.660156 186.363281 L 24.628906 186.363281 L 24.628906 185.121094 "/>
<path style=" stroke:none;fill-rule:nonzero;fill:rgb(0%,0%,0%);fill-opacity:1;" d="M 28.660156 185.53125 L 32.097656 185.53125 L 32.097656 186.363281 L 27.46875 186.363281 L 27.46875 185.53125 C 27.839844 185.152344 28.347656 184.632812 29 183.972656 C 29.640625 183.320312 30.050781 182.902344 30.21875 182.710938 C 30.539062 182.363281 30.757812 182.0625 30.878906 181.8125 C 31 181.570312 31.070312 181.320312 31.070312 181.082031 C 31.070312 180.703125 30.929688 180.382812 30.660156 180.140625 C 30.390625 179.902344 30.039062 179.773438 29.597656 179.773438 C 29.289062 179.773438 28.960938 179.832031 28.621094 179.929688 C 28.277344 180.042969 27.910156 180.203125 27.519531 180.421875 L 27.519531 179.421875 C 27.917969 179.261719 28.289062 179.140625 28.628906 179.0625 C 28.96875 178.980469 29.289062 178.941406 29.578125 178.941406 C 30.328125 178.941406 30.929688 179.132812 31.378906 179.511719 C 31.828125 179.890625 32.058594 180.390625 32.058594 181.023438 C 32.058594 181.320312 32 181.613281 31.890625 181.871094 C 31.777344 182.140625 31.578125 182.460938 31.277344 182.820312 C 31.199219 182.921875 30.9375 183.191406 30.5 183.640625 C 30.058594 184.089844 29.449219 184.722656 28.660156 185.53125 "/>
<path style="fill:none;stroke-width:0.8;stroke-linecap:butt;stroke-linejoin:round;stroke:rgb(0%,0%,0%);stroke-opacity:1;stroke-miterlimit:10;" d="M 53.999969 110.339369 L 50.499969 110.339369 " transform="matrix(1,0,0,-1,-13.8945,255.7339)"/>
<path style=" stroke:none;fill-rule:nonzero;fill:rgb(0%,0%,0%);fill-opacity:1;" d="M 20.378906 142.550781 C 19.871094 142.550781 19.488281 142.800781 19.230469 143.300781 C 18.96875 143.800781 18.847656 144.550781 18.847656 145.550781 C 18.847656 146.550781 18.96875 147.300781 19.230469 147.800781 C 19.488281 148.300781 19.871094 148.550781 20.378906 148.550781 C 20.890625 148.550781 21.269531 148.300781 21.527344 147.800781 C 21.777344 147.300781 21.910156 146.550781 21.910156 145.550781 C 21.910156 144.550781 21.777344 143.800781 21.527344 143.300781 C 21.269531 142.800781 20.890625 142.550781 20.378906 142.550781 M 20.378906 141.773438 C 21.1875 141.773438 21.808594 142.101562 22.25 142.742188 C 22.679688 143.390625 22.898438 144.332031 22.898438 145.550781 C 22.898438 146.78125 22.679688 147.722656 22.25 148.363281 C 21.808594 149.003906 21.1875 149.324219 20.378906 149.324219 C 19.558594 149.324219 18.929688 149.003906 18.5 148.363281 C 18.070312 147.722656 17.859375 146.78125 17.859375 145.550781 C 17.859375 144.332031 18.070312 143.390625 18.5 142.742188 C 18.929688 142.101562 19.558594 141.773438 20.378906 141.773438 "/>
<path style=" stroke:none;fill-rule:nonzero;fill:rgb(0%,0%,0%);fill-opacity:1;" d="M 24.628906 147.953125 L 25.660156 147.953125 L 25.660156 149.191406 L 24.628906 149.191406 L 24.628906 147.953125 "/>
<path style=" stroke:none;fill-rule:nonzero;fill:rgb(0%,0%,0%);fill-opacity:1;" d="M 30.519531 142.761719 L 28.027344 146.652344 L 30.519531 146.652344 L 30.519531 142.761719 M 30.257812 141.902344 L 31.5 141.902344 L 31.5 146.652344 L 32.539062 146.652344 L 32.539062 147.472656 L 31.5 147.472656 L 31.5 149.191406 L 30.519531 149.191406 L 30.519531 147.472656 L 27.230469 147.472656 L 27.230469 146.523438 L 30.257812 141.902344 "/>
<path style="fill:none;stroke-width:0.8;stroke-linecap:butt;stroke-linejoin:round;stroke:rgb(0%,0%,0%);stroke-opacity:1;stroke-miterlimit:10;" d="M 53.999969 147.507337 L 50.499969 147.507337 " transform="matrix(1,0,0,-1,-13.8945,255.7339)"/>
<path style=" stroke:none;fill-rule:nonzero;fill:rgb(0%,0%,0%);fill-opacity:1;" d="M 20.378906 105.382812 C 19.871094 105.382812 19.488281 105.632812 19.230469 106.132812 C 18.96875 106.632812 18.847656 107.382812 18.847656 108.382812 C 18.847656 109.382812 18.96875 110.132812 19.230469 110.632812 C 19.488281 111.132812 19.871094 111.382812 20.378906 111.382812 C 20.890625 111.382812 21.269531 111.132812 21.527344 110.632812 C 21.777344 110.132812 21.910156 109.382812 21.910156 108.382812 C 21.910156 107.382812 21.777344 106.632812 21.527344 106.132812 C 21.269531 105.632812 20.890625 105.382812 20.378906 105.382812 M 20.378906 104.601562 C 21.1875 104.601562 21.808594 104.933594 22.25 105.574219 C 22.679688 106.222656 22.898438 107.164062 22.898438 108.382812 C 22.898438 109.613281 22.679688 110.554688 22.25 111.191406 C 21.808594 111.832031 21.1875 112.152344 20.378906 112.152344 C 19.558594 112.152344 18.929688 111.832031 18.5 111.191406 C 18.070312 110.554688 17.859375 109.613281 17.859375 108.382812 C 17.859375 107.164062 18.070312 106.222656 18.5 105.574219 C 18.929688 104.933594 19.558594 104.601562 20.378906 104.601562 "/>
<path style=" stroke:none;fill-rule:nonzero;fill:rgb(0%,0%,0%);fill-opacity:1;" d="M 24.628906 110.78125 L 25.660156 110.78125 L 25.660156 112.023438 L 24.628906 112.023438 L 24.628906 110.78125 "/>
<path style=" stroke:none;fill-rule:nonzero;fill:rgb(0%,0%,0%);fill-opacity:1;" d="M 30.039062 107.984375 C 29.597656 107.984375 29.25 108.144531 28.988281 108.441406 C 28.730469 108.742188 28.597656 109.164062 28.597656 109.683594 C 28.597656 110.214844 28.730469 110.632812 28.988281 110.933594 C 29.25 111.234375 29.597656 111.382812 30.039062 111.382812 C 30.480469 111.382812 30.828125 111.234375 31.089844 110.933594 C 31.347656 110.632812 31.480469 110.214844 31.480469 109.683594 C 31.480469 109.164062 31.347656 108.742188 31.089844 108.441406 C 30.828125 108.144531 30.480469 107.984375 30.039062 107.984375 M 32 104.894531 L 32 105.792969 C 31.75 105.671875 31.5 105.582031 31.25 105.523438 C 30.988281 105.464844 30.738281 105.433594 30.5 105.433594 C 29.839844 105.433594 29.339844 105.652344 29 106.09375 C 28.660156 106.53125 28.460938 107.203125 28.417969 108.082031 C 28.609375 107.804688 28.847656 107.582031 29.140625 107.433594 C 29.429688 107.28125 29.75 107.203125 30.097656 107.203125 C 30.828125 107.203125 31.410156 107.433594 31.828125 107.875 C 32.25 108.3125 32.46875 108.921875 32.46875 109.683594 C 32.46875 110.433594 32.238281 111.03125 31.800781 111.484375 C 31.359375 111.933594 30.769531 112.152344 30.039062 112.152344 C 29.199219 112.152344 28.550781 111.832031 28.109375 111.191406 C 27.660156 110.554688 27.4375 109.613281 27.4375 108.382812 C 27.4375 107.234375 27.710938 106.3125 28.257812 105.632812 C 28.800781 104.953125 29.539062 104.601562 30.460938 104.601562 C 30.699219 104.601562 30.949219 104.632812 31.210938 104.671875 C 31.460938 104.722656 31.71875 104.792969 32 104.894531 "/>
<path style="fill:none;stroke-width:0.8;stroke-linecap:butt;stroke-linejoin:round;stroke:rgb(0%,0%,0%);stroke-opacity:1;stroke-miterlimit:10;" d="M 53.999969 184.675306 L 50.499969 184.675306 " transform="matrix(1,0,0,-1,-13.8945,255.7339)"/>
<path style=" stroke:none;fill-rule:nonzero;fill:rgb(0%,0%,0%);fill-opacity:1;" d="M 20.378906 68.214844 C 19.871094 68.214844 19.488281 68.464844 19.230469 68.964844 C 18.96875 69.464844 18.847656 70.214844 18.847656 71.214844 C 18.847656 72.214844 18.96875 72.964844 19.230469 73.464844 C 19.488281 73.964844 19.871094 74.214844 20.378906 74.214844 C 20.890625 74.214844 21.269531 73.964844 21.527344 73.464844 C 21.777344 72.964844 21.910156 72.214844 21.910156 71.214844 C 21.910156 70.214844 21.777344 69.464844 21.527344 68.964844 C 21.269531 68.464844 20.890625 68.214844 20.378906 68.214844 M 20.378906 67.433594 C 21.1875 67.433594 21.808594 67.765625 22.25 68.402344 C 22.679688 69.054688 22.898438 69.992188 22.898438 71.214844 C 22.898438 72.445312 22.679688 73.382812 22.25 74.023438 C 21.808594 74.664062 21.1875 74.984375 20.378906 74.984375 C 19.558594 74.984375 18.929688 74.664062 18.5 74.023438 C 18.070312 73.382812 17.859375 72.445312 17.859375 71.214844 C 17.859375 69.992188 18.070312 69.054688 18.5 68.402344 C 18.929688 67.765625 19.558594 67.433594 20.378906 67.433594 "/>
<path style=" stroke:none;fill-rule:nonzero;fill:rgb(0%,0%,0%);fill-opacity:1;" d="M 24.628906 73.613281 L 25.660156 73.613281 L 25.660156 74.855469 L 24.628906 74.855469 L 24.628906 73.613281 "/>
<path style=" stroke:none;fill-rule:nonzero;fill:rgb(0%,0%,0%);fill-opacity:1;" d="M 29.917969 71.394531 C 29.449219 71.394531 29.078125 71.523438 28.808594 71.773438 C 28.539062 72.023438 28.410156 72.363281 28.410156 72.804688 C 28.410156 73.242188 28.539062 73.59375 28.808594 73.84375 C 29.078125 74.09375 29.449219 74.214844 29.917969 74.214844 C 30.378906 74.214844 30.75 74.09375 31.019531 73.832031 C 31.289062 73.582031 31.429688 73.242188 31.429688 72.804688 C 31.429688 72.363281 31.289062 72.023438 31.027344 71.773438 C 30.757812 71.523438 30.390625 71.394531 29.917969 71.394531 M 28.929688 70.972656 C 28.507812 70.875 28.179688 70.675781 27.9375 70.382812 C 27.699219 70.09375 27.589844 69.742188 27.589844 69.324219 C 27.589844 68.742188 27.789062 68.285156 28.210938 67.945312 C 28.621094 67.605469 29.1875 67.433594 29.917969 67.433594 C 30.640625 67.433594 31.210938 67.605469 31.628906 67.945312 C 32.039062 68.285156 32.25 68.742188 32.25 69.324219 C 32.25 69.742188 32.128906 70.09375 31.890625 70.382812 C 31.648438 70.675781 31.328125 70.875 30.910156 70.972656 C 31.378906 71.082031 31.75 71.304688 32.019531 71.625 C 32.277344 71.945312 32.417969 72.34375 32.417969 72.804688 C 32.417969 73.515625 32.199219 74.054688 31.769531 74.425781 C 31.328125 74.804688 30.71875 74.984375 29.917969 74.984375 C 29.109375 74.984375 28.488281 74.804688 28.058594 74.425781 C 27.628906 74.054688 27.417969 73.515625 27.417969 72.804688 C 27.417969 72.34375 27.550781 71.945312 27.820312 71.625 C 28.078125 71.304688 28.449219 71.082031 28.929688 70.972656 M 28.570312 69.414062 C 28.570312 69.792969 28.679688 70.09375 28.917969 70.304688 C 29.160156 70.515625 29.488281 70.613281 29.917969 70.613281 C 30.339844 70.613281 30.667969 70.515625 30.910156 70.304688 C 31.148438 70.09375 31.269531 69.792969 31.269531 69.414062 C 31.269531 69.035156 31.148438 68.742188 30.910156 68.535156 C 30.667969 68.324219 30.339844 68.214844 29.917969 68.214844 C 29.488281 68.214844 29.160156 68.324219 28.917969 68.535156 C 28.679688 68.742188 28.570312 69.035156 28.570312 69.414062 "/>
<path style="fill:none;stroke-width:0.8;stroke-linecap:butt;stroke-linejoin:round;stroke:rgb(0%,0%,0%);stroke-opacity:1;stroke-miterlimit:10;" d="M 53.999969 221.847181 L 50.499969 221.847181 " transform="matrix(1,0,0,-1,-13.8945,255.7339)"/>
<path style=" stroke:none;fill-rule:nonzero;fill:rgb(0%,0%,0%);fill-opacity:1;" d="M 18.4375 36.855469 L 20.050781 36.855469 L 20.050781 31.292969 L 18.300781 31.644531 L 18.300781 30.746094 L 20.039062 30.394531 L 21.027344 30.394531 L 21.027344 36.855469 L 22.640625 36.855469 L 22.640625 37.683594 L 18.4375 37.683594 L 18.4375 36.855469 "/>
<path style=" stroke:none;fill-rule:nonzero;fill:rgb(0%,0%,0%);fill-opacity:1;" d="M 24.628906 36.445312 L 25.660156 36.445312 L 25.660156 37.683594 L 24.628906 37.683594 L 24.628906 36.445312 "/>
<path style=" stroke:none;fill-rule:nonzero;fill:rgb(0%,0%,0%);fill-opacity:1;" d="M 29.917969 31.042969 C 29.410156 31.042969 29.027344 31.292969 28.769531 31.792969 C 28.507812 32.292969 28.390625 33.042969 28.390625 34.042969 C 28.390625 35.042969 28.507812 35.792969 28.769531 36.292969 C 29.027344 36.792969 29.410156 37.042969 29.917969 37.042969 C 30.429688 37.042969 30.808594 36.792969 31.070312 36.292969 C 31.320312 35.792969 31.449219 35.042969 31.449219 34.042969 C 31.449219 33.042969 31.320312 32.292969 31.070312 31.792969 C 30.808594 31.292969 30.429688 31.042969 29.917969 31.042969 M 29.917969 30.265625 C 30.730469 30.265625 31.347656 30.59375 31.789062 31.234375 C 32.21875 31.882812 32.4375 32.824219 32.4375 34.042969 C 32.4375 35.273438 32.21875 36.214844 31.789062 36.855469 C 31.347656 37.496094 30.730469 37.816406 29.917969 37.816406 C 29.097656 37.816406 28.46875 37.496094 28.039062 36.855469 C 27.609375 36.214844 27.398438 35.273438 27.398438 34.042969 C 27.398438 32.824219 27.609375 31.882812 28.039062 31.234375 C 28.46875 30.59375 29.097656 30.265625 29.917969 30.265625 "/>
<path style=" stroke:none;fill-rule:nonzero;fill:rgb(0%,0%,0%);fill-opacity:1;" d="M 3.128906 113.324219 L 3.128906 112.332031 L 10.417969 113.753906 L 10.417969 114.742188 L 3.128906 113.324219 "/>
<path style=" stroke:none;fill-rule:nonzero;fill:rgb(0%,0%,0%);fill-opacity:1;" d="M 7.339844 109.496094 L 12.058594 108.648438 L 12.058594 109.3125 L 9.230469 109.839844 L 12.058594 111.707031 L 12.058594 112.367188 L 8.390625 109.984375 L 7.710938 110.105469 C 7.425781 110.152344 7.277344 110.300781 7.277344 110.546875 L 7.277344 110.875 L 6.738281 110.769531 L 6.746094 110.371094 C 6.757812 109.859375 6.957031 109.566406 7.339844 109.496094 "/>
<g clip-path="url(#clip4)" clip-rule="nonzero">
<path style="fill:none;stroke-width:1.5;stroke-linecap:square;stroke-linejoin:round;stroke:rgb(100%,49.803162%,5.490112%);stroke-opacity:1;stroke-miterlimit:10;" d="M -1.000031 221.456556 L 53.832 221.144056 L 86.386687 220.757337 L 107.453094 220.308119 L 122.773406 219.784681 L 134.265594 219.20265 L 143.839812 218.507337 L 151.499969 217.737806 L 157.246062 216.968275 L 162.992156 215.968275 L 166.820281 215.116712 L 170.652312 214.073744 L 174.480437 212.769056 L 178.312469 211.104994 L 180.226531 210.101087 L 182.140594 208.944837 L 184.054656 207.616712 L 185.972625 206.073744 L 187.886687 204.269056 L 189.80075 202.136244 L 191.714812 199.601087 L 193.632781 196.5464 L 195.546844 192.835462 L 197.460906 188.261244 L 199.374969 182.5464 L 201.292937 175.284681 L 203.207 165.882337 L 205.121062 153.362806 L 207.039031 135.761244 L 208.953094 109.1714 L 210.867156 76.690931 L 212.781219 64.714369 L 214.699187 64.472181 L 228.101531 64.472181 L 230.0195 64.714369 L 231.933562 76.690931 L 233.847625 109.1714 L 235.761687 135.761244 L 237.679656 153.362806 L 239.593719 165.882337 L 241.507781 175.284681 L 243.421844 182.5464 L 245.339812 188.261244 L 247.253875 192.835462 L 249.167937 196.5464 L 251.082 199.601087 L 252.999969 202.136244 L 254.914031 204.269056 L 256.828094 206.073744 L 258.742156 207.616712 L 260.660125 208.944837 L 262.574187 210.101087 L 266.402312 211.987806 L 270.234344 213.456556 L 274.062469 214.624525 L 277.8945 215.565931 L 283.640594 216.663587 L 289.382781 217.503431 L 297.042937 218.335462 L 306.621062 219.081556 L 318.109344 219.70265 L 331.515594 220.198744 L 350.667937 220.655775 L 377.476531 221.034681 L 415.777312 221.331556 L 432.999969 221.413587 " transform="matrix(1,0,0,-1,-13.8945,255.7339)"/>
</g>
<path style="fill:none;stroke-width:0.8;stroke-linecap:square;stroke-linejoin:miter;stroke:rgb(0%,0%,0%);stroke-opacity:1;stroke-miterlimit:10;" d="M 53.999969 35.999525 L 53.999969 253.440931 " transform="matrix(1,0,0,-1,-13.8945,255.7339)"/>
<path style="fill:none;stroke-width:0.8;stroke-linecap:square;stroke-linejoin:miter;stroke:rgb(0%,0%,0%);stroke-opacity:1;stroke-miterlimit:10;" d="M 388.80075 35.999525 L 388.80075 253.440931 " transform="matrix(1,0,0,-1,-13.8945,255.7339)"/>
<path style="fill:none;stroke-width:0.8;stroke-linecap:square;stroke-linejoin:miter;stroke:rgb(0%,0%,0%);stroke-opacity:1;stroke-miterlimit:10;" d="M 53.999969 35.999525 L 388.80075 35.999525 " transform="matrix(1,0,0,-1,-13.8945,255.7339)"/>
<path style="fill:none;stroke-width:0.8;stroke-linecap:square;stroke-linejoin:miter;stroke:rgb(0%,0%,0%);stroke-opacity:1;stroke-miterlimit:10;" d="M 53.999969 253.440931 L 388.80075 253.440931 " transform="matrix(1,0,0,-1,-13.8945,255.7339)"/>
<path style=" stroke:none;fill-rule:nonzero;fill:rgb(0%,0%,0%);fill-opacity:1;" d="M 336.175781 8.015625 L 337.519531 8.015625 L 338.007812 16.695312 L 341.859375 8.015625 L 343.398438 8.015625 L 343.902344 16.695312 L 347.710938 8.015625 L 349.113281 8.015625 L 344.574219 18.222656 L 342.839844 18.222656 L 342.363281 9.710938 L 338.542969 18.222656 L 336.804688 18.222656 L 336.175781 8.015625 "/>
<path style=" stroke:none;fill-rule:nonzero;fill:rgb(0%,0%,0%);fill-opacity:1;" d="M 352.269531 13.914062 L 353.457031 20.519531 L 352.527344 20.519531 L 351.789062 16.5625 L 349.175781 20.519531 L 348.253906 20.519531 L 351.585938 15.386719 L 351.417969 14.433594 C 351.351562 14.03125 351.144531 13.828125 350.800781 13.828125 L 350.339844 13.828125 L 350.488281 13.070312 L 351.046875 13.082031 C 351.761719 13.101562 352.171875 13.375 352.269531 13.914062 "/>
<path style="fill:none;stroke-width:1;stroke-linecap:round;stroke-linejoin:round;stroke:rgb(0%,0%,0%);stroke-opacity:1;stroke-miterlimit:10;" d="M 374.36325 227.4214 C 364.2695 227.4214 354.179656 227.4214 344.089812 227.4214 " transform="matrix(1,0,0,-1,-13.8945,255.7339)"/>
<path style="fill:none;stroke-width:1;stroke-linecap:round;stroke-linejoin:round;stroke:rgb(0%,0%,0%);stroke-opacity:1;stroke-miterlimit:10;" d="M 370.36325 229.4214 L 374.36325 227.4214 L 370.36325 225.4214 " transform="matrix(1,0,0,-1,-13.8945,255.7339)"/>
<path style="fill:none;stroke-width:1;stroke-linecap:round;stroke-linejoin:round;stroke:rgb(0%,0%,0%);stroke-opacity:1;stroke-miterlimit:10;" d="M 348.089812 225.4214 L 344.089812 227.4214 L 348.089812 229.4214 " transform="matrix(1,0,0,-1,-13.8945,255.7339)"/>
</g>
</svg>
