<?xml version="1.0" encoding="UTF-8"?>
<svg xmlns="http://www.w3.org/2000/svg" xmlns:xlink="http://www.w3.org/1999/xlink" width="201.1384pt" height="237.984pt" viewBox="0 0 201.1384 237.984" version="1.1">
<g id="surface1">
<path style="fill:none;stroke-width:0.454;stroke-linecap:butt;stroke-linejoin:miter;stroke:rgb(0%,0%,0%);stroke-opacity:1;stroke-miterlimit:2.5;" d="M 170.537394 283.009325 L 170.537394 279.298387 M 170.537394 281.954637 L 171.330362 282.747606 L 171.865519 283.009325 L 172.658487 283.009325 L 173.193644 282.747606 L 173.455362 281.954637 L 173.455362 279.298387 M 176.736612 270.46245 L 176.201456 270.997606 L 175.408487 271.259325 L 174.3538 271.259325 L 173.556925 270.997606 L 173.025675 270.46245 L 173.025675 269.942919 L 173.283487 269.407762 L 173.556925 269.146044 L 174.080362 268.876512 L 175.681925 268.341356 L 176.201456 268.079637 L 176.474894 267.817919 L 176.736612 267.286669 L 176.736612 266.489794 L 176.201456 265.958544 L 175.408487 265.696825 L 174.3538 265.696825 L 173.556925 265.958544 L 173.025675 266.489794 M 178.599894 271.259325 L 178.599894 265.696825 M 178.599894 268.614794 L 179.119425 269.146044 L 179.654581 269.407762 L 180.44755 269.407762 L 180.982706 269.146044 L 181.517862 268.614794 L 181.775675 267.817919 L 181.775675 267.286669 L 181.517862 266.489794 L 180.982706 265.958544 L 180.44755 265.696825 L 179.654581 265.696825 L 179.119425 265.958544 L 178.599894 266.489794 M 147.51005 284.907762 L 147.240519 285.427294 L 146.717081 285.96245 L 146.185831 286.235887 L 145.115519 286.235887 L 144.592081 285.96245 L 144.060831 285.427294 L 143.799112 284.907762 L 143.525675 284.110887 L 143.525675 282.782762 L 143.799112 281.989794 L 144.060831 281.454637 L 144.592081 280.919481 L 145.115519 280.661669 L 146.185831 280.661669 L 146.717081 280.919481 L 147.240519 281.454637 L 147.51005 281.989794 M 152.017862 283.579637 L 151.756144 284.110887 L 150.963175 284.372606 L 150.158487 284.372606 L 149.361612 284.110887 L 149.1038 283.579637 L 149.361612 283.044481 L 149.896769 282.782762 L 151.224894 282.509325 L 151.756144 282.247606 L 152.017862 281.716356 L 152.017862 281.454637 L 151.756144 280.919481 L 150.963175 280.661669 L 150.158487 280.661669 L 149.361612 280.919481 L 149.1038 281.454637 M 151.986612 286.235887 L 151.986612 280.661669 M 151.986612 286.235887 L 154.369425 286.235887 L 155.162394 285.96245 L 155.435831 285.700731 L 155.69755 285.165575 L 155.69755 284.634325 L 155.435831 284.110887 L 155.162394 283.83745 L 154.369425 283.579637 L 151.986612 283.579637 M 154.369425 283.579637 L 155.162394 283.317919 L 155.435831 283.044481 L 155.69755 282.509325 L 155.69755 281.716356 L 155.435831 281.192919 L 155.162394 280.919481 L 154.369425 280.661669 L 151.986612 280.661669 M 160.4788 284.372606 L 160.4788 280.661669 M 160.4788 283.579637 L 159.943644 284.110887 L 159.412394 284.372606 L 158.615519 284.372606 L 158.080362 284.110887 L 157.560831 283.579637 L 157.287394 282.782762 L 157.287394 282.251512 L 157.560831 281.454637 L 158.080362 280.919481 L 158.615519 280.661669 L 159.412394 280.661669 L 159.943644 280.919481 L 160.4788 281.454637 M 349.209269 250.731981 L 510.748331 250.731981 M 349.209269 250.731981 L 349.209269 254.536669 M 348.678019 244.3062 L 347.881144 244.044481 L 347.349894 243.251512 L 347.088175 241.919481 L 347.088175 241.126512 L 347.349894 239.798387 L 347.881144 239.005419 L 348.678019 238.7437 L 349.209269 238.7437 L 350.006144 239.005419 L 350.525675 239.798387 L 350.799112 241.126512 L 350.799112 241.919481 L 350.525675 243.251512 L 350.006144 244.044481 L 349.209269 244.3062 L 348.678019 244.3062 " transform="matrix(1,0,0,-1,-316.0413,461.1187)"/>
<path style="fill:none;stroke-width:0.454;stroke-linecap:butt;stroke-linejoin:miter;stroke:rgb(0%,0%,0%);stroke-opacity:1;stroke-miterlimit:2.5;" d="M 380.275675 250.731981 L 380.275675 254.536669 M 381.330362 244.3062 L 378.685831 244.3062 L 378.412394 241.919481 L 378.685831 242.1812 L 379.4788 242.454637 L 380.275675 242.454637 L 381.068644 242.1812 L 381.6038 241.661669 L 381.861612 240.864794 L 381.861612 240.333544 L 381.6038 239.536669 L 381.068644 239.005419 L 380.275675 238.7437 L 379.4788 238.7437 L 378.685831 239.005419 L 378.412394 239.263231 L 378.150675 239.798387 M 411.338175 250.731981 L 411.338175 254.536669 M 407.3538 243.251512 L 407.88505 243.509325 L 408.681925 244.3062 L 408.681925 238.7437 M 413.459269 244.3062 L 412.6663 244.044481 L 412.131144 243.251512 L 411.869425 241.919481 L 411.869425 241.126512 L 412.131144 239.798387 L 412.6663 239.005419 L 413.459269 238.7437 L 413.994425 238.7437 L 414.787394 239.005419 L 415.310831 239.798387 L 415.584269 241.126512 L 415.584269 241.919481 L 415.310831 243.251512 L 414.787394 244.044481 L 413.994425 244.3062 L 413.459269 244.3062 M 442.400675 250.731981 L 442.400675 254.536669 M 438.428019 243.251512 L 438.94755 243.509325 L 439.744425 244.3062 L 439.744425 238.7437 M 446.111612 244.3062 L 443.467081 244.3062 L 443.193644 241.919481 L 443.467081 242.1812 L 444.263956 242.454637 L 445.056925 242.454637 L 445.8538 242.1812 L 446.38505 241.661669 L 446.646769 240.864794 L 446.646769 240.333544 L 446.38505 239.536669 L 445.8538 239.005419 L 445.056925 238.7437 L 444.263956 238.7437 L 443.467081 239.005419 L 443.193644 239.263231 L 442.935831 239.798387 M 473.463175 250.731981 L 473.463175 254.536669 M 468.955362 242.978075 L 468.955362 243.251512 L 469.217081 243.782762 L 469.490519 244.044481 L 470.013956 244.3062 L 471.080362 244.3062 L 471.615519 244.044481 L 471.873331 243.782762 L 472.13505 243.251512 L 472.13505 242.716356 L 471.873331 242.1812 L 471.342081 241.388231 L 468.69755 238.7437 L 472.408487 238.7437 " transform="matrix(1,0,0,-1,-316.0413,461.1187)"/>
<path style="fill:none;stroke-width:0.454;stroke-linecap:butt;stroke-linejoin:miter;stroke:rgb(0%,0%,0%);stroke-opacity:1;stroke-miterlimit:2.5;" d="M 475.588175 244.3062 L 474.7913 244.044481 L 474.26005 243.251512 L 473.998331 241.919481 L 473.998331 241.126512 L 474.26005 239.798387 L 474.7913 239.005419 L 475.588175 238.7437 L 476.119425 238.7437 L 476.9163 239.005419 L 477.44755 239.798387 L 477.709269 241.126512 L 477.709269 241.919481 L 477.44755 243.251512 L 476.9163 244.044481 L 476.119425 244.3062 L 475.588175 244.3062 M 504.529581 250.731981 L 504.529581 254.536669 M 500.021769 242.978075 L 500.021769 243.251512 L 500.279581 243.782762 L 500.553019 244.044481 L 501.088175 244.3062 L 502.142862 244.3062 L 502.678019 244.044481 L 502.939737 243.782762 L 503.209269 243.251512 L 503.209269 242.716356 L 502.939737 242.1812 L 502.404581 241.388231 L 499.76005 238.7437 L 503.470987 238.7437 M 508.252237 244.3062 L 505.595987 244.3062 L 505.32255 241.919481 L 505.595987 242.1812 L 506.388956 242.454637 L 507.185831 242.454637 L 507.9788 242.1812 L 508.513956 241.661669 L 508.775675 240.864794 L 508.775675 240.333544 L 508.513956 239.536669 L 507.9788 239.005419 L 507.185831 238.7437 L 506.388956 238.7437 L 505.595987 239.005419 L 505.32255 239.263231 L 505.060831 239.798387 M 355.420206 250.731981 L 355.420206 252.626512 M 361.631144 250.731981 L 361.631144 252.626512 M 367.842081 250.731981 L 367.842081 252.626512 M 374.064737 250.731981 L 374.064737 252.626512 M 386.482706 250.731981 L 386.482706 252.626512 M 392.693644 250.731981 L 392.693644 252.626512 M 398.904581 250.731981 L 398.904581 252.626512 M 405.127237 250.731981 L 405.127237 252.626512 M 417.549112 250.731981 L 417.549112 252.626512 M 423.756144 250.731981 L 423.756144 252.626512 M 429.9788 250.731981 L 429.9788 252.626512 M 436.189737 250.731981 L 436.189737 252.626512 M 448.611612 250.731981 L 448.611612 252.626512 M 454.834269 250.731981 L 454.834269 252.626512 M 461.0413 250.731981 L 461.0413 252.626512 M 467.252237 250.731981 L 467.252237 252.626512 M 479.674112 250.731981 L 479.674112 252.626512 M 485.896769 250.731981 L 485.896769 252.626512 M 492.107706 250.731981 L 492.107706 252.626512 M 498.318644 250.731981 L 498.318644 252.626512 M 510.748331 250.731981 L 510.748331 252.626512 M 414.119425 232.067919 L 414.650675 232.067919 L 415.185831 231.532762 L 416.775675 226.751512 L 417.299112 226.220262 L 417.830362 226.220262 M 418.1038 232.067919 L 417.830362 231.532762 L 417.299112 230.739794 L 414.650675 227.548387 L 414.119425 226.751512 L 413.857706 226.220262 M 419.455362 229.02495 L 419.783487 229.192919 L 420.271769 229.6812 L 420.271769 226.231981 M 424.213175 228.036669 L 423.881144 228.364794 L 423.553019 228.536669 L 423.064737 228.536669 L 422.736612 228.364794 L 422.408487 228.036669 L 422.248331 227.548387 L 422.248331 227.216356 L 422.408487 226.728075 L 422.736612 226.39995 L 423.064737 226.231981 L 423.553019 226.231981 L 423.881144 226.39995 L 424.213175 226.728075 M 431.775675 234.985887 L 431.240519 234.450731 L 430.705362 233.657762 L 430.174112 232.58745 L 429.912394 231.259325 L 429.912394 230.204637 L 430.174112 228.876512 L 430.705362 227.548387 L 431.240519 226.751512 L 431.775675 226.220262 " transform="matrix(1,0,0,-1,-316.0413,461.1187)"/>
<path style="fill:none;stroke-width:0.454;stroke-linecap:butt;stroke-linejoin:miter;stroke:rgb(0%,0%,0%);stroke-opacity:1;stroke-miterlimit:2.5;" d="M 433.361612 230.466356 L 436.5413 230.466356 L 436.5413 230.997606 L 436.279581 231.532762 L 436.01005 231.794481 L 435.486612 232.067919 L 434.693644 232.067919 L 434.158487 231.794481 L 433.623331 231.259325 L 433.361612 230.466356 L 433.361612 229.942919 L 433.623331 229.14995 L 434.158487 228.614794 L 434.693644 228.341356 L 435.486612 228.341356 L 436.01005 228.614794 L 436.5413 229.14995 M 437.607706 233.915575 L 439.732706 228.341356 L 441.857706 233.915575 M 442.912394 234.985887 L 443.443644 234.450731 L 443.9788 233.657762 L 444.502237 232.58745 L 444.775675 231.259325 L 444.775675 230.204637 L 444.502237 228.876512 L 443.9788 227.548387 L 443.443644 226.751512 L 442.912394 226.220262 M 349.209269 250.731981 L 349.209269 441.200731 M 349.209269 265.220262 L 352.435831 265.220262 M 344.564737 267.591356 L 341.908487 263.880419 L 345.88505 263.880419 M 344.564737 267.591356 L 344.564737 262.017137 M 349.209269 306.626512 L 352.435831 306.626512 M 345.361612 308.204637 L 345.088175 308.735887 L 344.295206 308.997606 L 343.771769 308.997606 L 342.967081 308.735887 L 342.443644 307.942919 L 342.170206 306.614794 L 342.170206 305.286669 L 342.443644 304.228075 L 342.967081 303.696825 L 343.771769 303.423387 L 344.033487 303.423387 L 344.826456 303.696825 L 345.361612 304.228075 L 345.623331 305.02495 L 345.623331 305.286669 L 345.361612 306.079637 L 344.826456 306.614794 L 344.033487 306.876512 L 343.771769 306.876512 L 342.967081 306.614794 L 342.443644 306.079637 L 342.170206 305.286669 M 349.209269 348.032762 L 352.435831 348.032762 M 343.236612 350.403856 L 342.443644 350.142137 L 342.170206 349.610887 L 342.170206 349.075731 L 342.443644 348.5562 L 342.967081 348.282762 L 344.033487 348.021044 L 344.826456 347.747606 L 345.361612 347.224169 L 345.623331 346.692919 L 345.623331 345.89995 L 345.361612 345.364794 L 345.088175 345.103075 L 344.295206 344.829637 L 343.236612 344.829637 L 342.443644 345.103075 L 342.170206 345.364794 L 341.908487 345.89995 L 341.908487 346.692919 L 342.170206 347.224169 L 342.705362 347.747606 L 343.498331 348.021044 L 344.564737 348.282762 L 345.088175 348.5562 L 345.361612 349.075731 L 345.361612 349.610887 L 345.088175 350.142137 L 344.295206 350.403856 L 343.236612 350.403856 M 349.209269 389.439012 L 352.435831 389.439012 M 337.400675 390.755419 L 337.924112 391.017137 L 338.732706 391.810106 L 338.732706 386.235887 M 343.498331 391.810106 L 342.705362 391.552294 L 342.170206 390.755419 L 341.908487 389.427294 L 341.908487 388.634325 L 342.170206 387.3062 L 342.705362 386.509325 L 343.498331 386.235887 L 344.033487 386.235887 L 344.826456 386.509325 L 345.361612 387.3062 L 345.623331 388.634325 L 345.623331 389.427294 L 345.361612 390.755419 L 344.826456 391.552294 L 344.033487 391.810106 L 343.498331 391.810106 M 349.209269 430.845262 L 352.435831 430.845262 M 337.400675 432.161669 L 337.924112 432.423387 L 338.732706 433.220262 L 338.732706 427.642137 M 342.170206 431.888231 L 342.170206 432.161669 L 342.443644 432.685106 L 342.705362 432.958544 L 343.236612 433.220262 L 344.295206 433.220262 L 344.826456 432.958544 L 345.088175 432.685106 L 345.361612 432.161669 L 345.361612 431.630419 L 345.088175 431.095262 L 344.564737 430.302294 L 341.908487 427.642137 L 345.623331 427.642137 " transform="matrix(1,0,0,-1,-316.0413,461.1187)"/>
<path style="fill:none;stroke-width:0.454;stroke-linecap:butt;stroke-linejoin:miter;stroke:rgb(0%,0%,0%);stroke-opacity:1;stroke-miterlimit:2.5;" d="M 349.209269 254.864794 L 350.82255 254.864794 M 349.209269 275.575731 L 350.82255 275.575731 M 349.209269 285.927294 L 350.82255 285.927294 M 349.209269 296.271044 L 350.82255 296.271044 M 349.209269 316.978075 L 350.82255 316.978075 M 349.209269 327.321825 L 350.82255 327.321825 M 349.209269 337.677294 L 350.82255 337.677294 M 349.209269 358.388231 L 350.82255 358.388231 M 349.209269 368.728075 L 350.82255 368.728075 M 349.209269 379.083544 L 350.82255 379.083544 M 349.209269 399.794481 L 350.82255 399.794481 M 349.209269 410.138231 L 350.82255 410.138231 M 349.209269 420.489794 L 350.82255 420.489794 M 349.209269 441.200731 L 350.82255 441.200731 M 322.939737 308.634325 L 328.51005 306.513231 M 322.939737 308.634325 L 328.51005 310.759325 M 326.650675 307.3062 L 326.650675 309.96245 M 327.830362 312.110887 L 327.670206 312.439012 L 327.174112 312.927294 L 330.623331 312.927294 M 327.990519 315.060106 L 327.830362 315.060106 L 327.502237 315.231981 L 327.342081 315.392137 L 327.174112 315.720262 L 327.174112 316.376512 L 327.342081 316.708544 L 327.502237 316.8687 L 327.830362 317.036669 L 328.158487 317.036669 L 328.490519 316.8687 L 328.9788 316.536669 L 330.623331 314.903856 L 330.623331 317.196825 M 321.881144 320.509325 L 322.404581 319.978075 L 323.19755 319.442919 L 324.267862 318.923387 L 325.595987 318.64995 L 326.650675 318.64995 L 327.9788 318.923387 L 329.306925 319.442919 L 330.1038 319.978075 L 330.63505 320.509325 M 322.939737 322.360887 L 328.51005 322.360887 M 322.939737 322.360887 L 322.939737 325.814012 M 325.595987 322.360887 L 325.595987 324.485887 M 328.51005 322.360887 L 328.51005 325.814012 M 321.881144 327.142137 L 322.404581 327.673387 L 323.19755 328.208544 L 324.267862 328.731981 L 325.595987 329.005419 L 326.650675 329.005419 L 327.9788 328.731981 L 329.306925 328.208544 L 330.1038 327.673387 L 330.63505 327.142137 M 323.732706 337.755419 L 328.51005 337.755419 M 326.127237 335.372606 L 326.127237 340.142137 M 322.939737 346.509325 L 328.51005 346.509325 M 324.799112 349.689012 L 325.060831 349.169481 L 325.595987 348.634325 L 326.388956 348.372606 L 326.924112 348.372606 L 327.717081 348.634325 L 328.240519 349.169481 L 328.51005 349.689012 L 328.51005 350.497606 L 328.240519 351.017137 L 327.717081 351.552294 L 326.924112 351.814012 L 326.388956 351.814012 L 325.595987 351.552294 L 325.060831 351.017137 L 324.799112 350.497606 L 324.799112 349.689012 M 324.799112 356.591356 L 329.306925 356.591356 L 330.1038 356.333544 L 330.361612 356.060106 L 330.63505 355.536669 L 330.63505 354.731981 L 330.361612 354.208544 M 325.595987 356.591356 L 325.060831 356.060106 L 324.799112 355.536669 L 324.799112 354.731981 L 325.060831 354.208544 L 325.595987 353.673387 L 326.388956 353.415575 L 326.924112 353.415575 L 327.717081 353.673387 L 328.240519 354.208544 L 328.51005 354.731981 L 328.51005 355.536669 L 328.240519 356.060106 L 327.717081 356.591356 M 321.881144 360.579637 L 322.404581 360.044481 L 323.19755 359.509325 L 324.267862 358.978075 L 325.595987 358.716356 L 326.650675 358.716356 L 327.9788 358.978075 L 329.306925 359.509325 L 330.1038 360.044481 L 330.63505 360.579637 " transform="matrix(1,0,0,-1,-316.0413,461.1187)"/>
<path style="fill:none;stroke-width:0.454;stroke-linecap:butt;stroke-linejoin:miter;stroke:rgb(0%,0%,0%);stroke-opacity:1;stroke-miterlimit:2.5;" d="M 324.799112 366.142137 L 324.799112 363.497606 L 325.060831 362.96245 L 325.595987 362.427294 L 326.388956 362.169481 L 327.185831 362.169481 L 327.9788 362.427294 L 328.240519 362.689012 L 328.51005 363.224169 L 328.51005 363.755419 L 328.240519 364.290575 L 327.717081 364.814012 L 326.924112 365.08745 L 326.127237 365.08745 L 325.32255 364.814012 L 325.060831 364.552294 L 324.799112 364.017137 M 321.881144 371.978075 L 330.63505 367.208544 M 324.799112 377.290575 L 324.799112 374.634325 L 325.060831 374.099169 L 325.595987 373.579637 L 326.388956 373.3062 L 327.185831 373.3062 L 327.9788 373.579637 L 328.240519 373.83745 L 328.51005 374.372606 L 328.51005 374.896044 L 328.240519 375.427294 L 327.717081 375.96245 L 326.924112 376.224169 L 326.127237 376.224169 L 325.32255 375.96245 L 325.060831 375.700731 L 324.799112 375.169481 M 327.174112 378.575731 L 330.623331 378.575731 M 327.174112 380.876512 L 330.623331 380.876512 M 328.818644 378.575731 L 328.818644 380.876512 M 321.881144 382.228075 L 322.404581 382.763231 L 323.19755 383.286669 L 324.267862 383.817919 L 325.595987 384.079637 L 326.650675 384.079637 L 327.9788 383.817919 L 329.306925 383.286669 L 330.1038 382.763231 L 330.63505 382.228075 M 510.748331 250.731981 L 510.748331 441.200731 M 510.748331 265.220262 L 507.513956 265.220262 M 510.748331 306.626512 L 507.513956 306.626512 M 510.748331 348.032762 L 507.513956 348.032762 M 510.748331 389.439012 L 507.513956 389.439012 M 510.748331 430.845262 L 507.513956 430.845262 M 510.748331 254.864794 L 509.127237 254.864794 M 510.748331 275.575731 L 509.127237 275.575731 M 510.748331 285.927294 L 509.127237 285.927294 M 510.748331 296.271044 L 509.127237 296.271044 M 510.748331 316.978075 L 509.127237 316.978075 M 510.748331 327.321825 L 509.127237 327.321825 M 510.748331 337.677294 L 509.127237 337.677294 M 510.748331 358.388231 L 509.127237 358.388231 M 510.748331 368.728075 L 509.127237 368.728075 M 510.748331 379.083544 L 509.127237 379.083544 M 510.748331 399.794481 L 509.127237 399.794481 M 510.748331 410.138231 L 509.127237 410.138231 M 510.748331 420.489794 L 509.127237 420.489794 M 510.748331 441.200731 L 509.127237 441.200731 M 433.705362 427.064012 L 433.705362 430.845262 L 437.486612 427.064012 M 501.982706 406.435106 L 501.982706 410.216356 L 505.763956 406.435106 M 419.158487 364.700731 L 419.158487 368.478075 L 422.939737 364.700731 M 500.678019 355.911669 L 500.678019 359.692919 L 504.459269 355.911669 M 439.482706 347.509325 L 439.482706 351.290575 L 443.263956 347.509325 M 433.830362 355.603075 L 433.830362 359.384325 L 437.607706 355.603075 M 483.217081 336.677294 L 483.217081 340.458544 L 486.998331 336.677294 M 381.13505 274.325731 L 381.13505 278.103075 L 384.9163 274.325731 M 396.736612 321.032762 L 396.736612 324.814012 L 400.517862 321.032762 M 442.650675 304.446825 L 442.650675 308.228075 L 446.431925 304.446825 M 386.428019 326.552294 L 386.428019 330.333544 L 390.209269 326.552294 M 399.845987 351.130419 L 399.845987 354.911669 L 403.627237 351.130419 " transform="matrix(1,0,0,-1,-316.0413,461.1187)"/>
<path style="fill:none;stroke-width:0.454;stroke-linecap:butt;stroke-linejoin:miter;stroke:rgb(0%,0%,0%);stroke-opacity:1;stroke-miterlimit:2.5;" d="M 450.7913 325.142137 L 450.7913 328.923387 L 454.57255 325.142137 M 387.1663 290.708544 L 387.1663 294.489794 L 390.94755 290.708544 M 422.951456 267.64995 L 422.951456 271.427294 L 426.732706 267.64995 M 398.099894 330.911669 L 398.099894 334.692919 L 401.881144 330.911669 M 349.209269 441.200731 L 510.748331 441.200731 M 349.209269 441.200731 L 349.209269 437.384325 M 348.939737 447.579637 L 349.470987 446.786669 L 349.732706 446.513231 L 350.267862 446.251512 L 350.799112 446.251512 L 351.334269 446.513231 L 351.592081 446.786669 L 351.857706 447.321825 L 351.857706 447.841356 L 351.592081 448.376512 L 351.334269 448.638231 L 350.799112 448.907762 L 350.267862 448.907762 L 349.732706 448.638231 L 349.470987 448.376512 L 348.404581 446.786669 L 348.142862 446.513231 L 347.607706 446.251512 L 347.088175 446.251512 L 346.553019 446.513231 L 346.2913 446.786669 L 345.76005 447.321825 L 345.76005 447.841356 L 346.553019 448.638231 L 347.088175 448.907762 L 347.607706 448.907762 L 348.142862 448.638231 L 348.404581 448.376512 L 348.939737 447.579637 M 380.013956 441.200731 L 380.013956 437.384325 M 372.849894 449.442919 L 372.849894 449.704637 L 373.119425 450.239794 L 373.381144 450.497606 L 373.9163 450.759325 L 374.970987 450.759325 L 375.506144 450.497606 L 375.779581 450.239794 L 376.037394 449.704637 L 376.037394 449.169481 L 375.779581 448.638231 L 375.244425 447.841356 L 372.588175 445.196825 L 376.299112 445.196825 M 381.080362 450.759325 L 378.424112 450.759325 L 378.162394 448.376512 L 378.424112 448.638231 L 379.217081 448.907762 L 380.013956 448.907762 L 380.818644 448.638231 L 381.342081 448.114794 L 381.611612 447.321825 L 381.611612 446.786669 L 381.342081 445.989794 L 380.818644 445.458544 L 380.013956 445.196825 L 379.217081 445.196825 L 378.424112 445.458544 L 378.162394 445.720262 L 377.888956 446.251512 M 384.7913 450.759325 L 383.998331 450.497606 L 383.463175 449.704637 L 383.201456 448.376512 L 383.201456 447.579637 L 383.463175 446.251512 L 383.998331 445.458544 L 384.7913 445.196825 L 385.326456 445.196825 L 386.119425 445.458544 L 386.654581 446.251512 L 386.9163 447.579637 L 386.9163 448.376512 L 386.654581 449.704637 L 386.119425 450.497606 L 385.326456 450.759325 L 384.7913 450.759325 M 410.826456 441.200731 L 410.826456 437.384325 M 404.19755 449.704637 L 404.7288 449.966356 L 405.525675 450.759325 L 405.525675 445.196825 M 408.974894 449.442919 L 408.974894 449.704637 L 409.236612 450.239794 L 409.498331 450.497606 L 410.029581 450.759325 L 411.099894 450.759325 L 411.619425 450.497606 L 411.892862 450.239794 L 412.154581 449.704637 L 412.154581 449.169481 L 411.892862 448.638231 L 411.361612 447.841356 L 408.701456 445.196825 L 412.4163 445.196825 M 417.19755 450.759325 L 414.537394 450.759325 L 414.279581 448.376512 L 414.537394 448.638231 L 415.345987 448.907762 L 416.138956 448.907762 L 416.935831 448.638231 L 417.455362 448.114794 L 417.7288 447.321825 L 417.7288 446.786669 L 417.455362 445.989794 L 416.935831 445.458544 L 416.138956 445.196825 L 415.345987 445.196825 L 414.537394 445.458544 L 414.279581 445.720262 L 414.017862 446.251512 " transform="matrix(1,0,0,-1,-316.0413,461.1187)"/>
<path style="fill:none;stroke-width:0.454;stroke-linecap:butt;stroke-linejoin:miter;stroke:rgb(0%,0%,0%);stroke-opacity:1;stroke-miterlimit:2.5;" d="M 451.9163 441.200731 L 451.9163 437.384325 M 450.849894 450.759325 L 448.201456 445.196825 M 447.13505 450.759325 L 450.849894 450.759325 M 455.627237 450.759325 L 452.970987 450.759325 L 452.709269 448.376512 L 452.970987 448.638231 L 453.767862 448.907762 L 454.560831 448.907762 L 455.3538 448.638231 L 455.888956 448.114794 L 456.162394 447.321825 L 456.162394 446.786669 L 455.888956 445.989794 L 455.3538 445.458544 L 454.560831 445.196825 L 453.767862 445.196825 L 452.970987 445.458544 L 452.709269 445.720262 L 452.435831 446.251512 M 477.584269 441.200731 L 477.584269 437.384325 M 476.256144 449.966356 L 475.994425 450.497606 L 475.201456 450.759325 L 474.6663 450.759325 L 473.873331 450.497606 L 473.338175 449.704637 L 473.076456 448.376512 L 473.076456 447.048387 L 473.338175 445.989794 L 473.873331 445.458544 L 474.6663 445.196825 L 474.939737 445.196825 L 475.736612 445.458544 L 476.256144 445.989794 L 476.529581 446.786669 L 476.529581 447.048387 L 476.256144 447.841356 L 475.736612 448.376512 L 474.939737 448.638231 L 474.6663 448.638231 L 473.873331 448.376512 L 473.338175 447.841356 L 473.076456 447.048387 M 479.709269 450.759325 L 478.912394 450.497606 L 478.381144 449.704637 L 478.119425 448.376512 L 478.119425 447.579637 L 478.381144 446.251512 L 478.912394 445.458544 L 479.709269 445.196825 L 480.240519 445.196825 L 481.037394 445.458544 L 481.57255 446.251512 L 481.830362 447.579637 L 481.830362 448.376512 L 481.57255 449.704637 L 481.037394 450.497606 L 480.240519 450.759325 L 479.709269 450.759325 M 503.267862 441.200731 L 503.267862 437.384325 M 501.678019 450.759325 L 499.021769 450.759325 L 498.748331 448.376512 L 499.021769 448.638231 L 499.814737 448.907762 L 500.611612 448.907762 L 501.404581 448.638231 L 501.939737 448.114794 L 502.201456 447.321825 L 502.201456 446.786669 L 501.939737 445.989794 L 501.404581 445.458544 L 500.611612 445.196825 L 499.814737 445.196825 L 499.021769 445.458544 L 498.748331 445.720262 L 498.486612 446.251512 M 505.392862 450.759325 L 504.595987 450.497606 L 504.060831 449.704637 L 503.7913 448.376512 L 503.7913 447.579637 L 504.060831 446.251512 L 504.595987 445.458544 L 505.392862 445.196825 L 505.912394 445.196825 L 506.717081 445.458544 L 507.240519 446.251512 L 507.513956 447.579637 L 507.513956 448.376512 L 507.240519 449.704637 L 506.717081 450.497606 L 505.912394 450.759325 L 505.392862 450.759325 M 415.513956 458.751512 L 416.049112 458.751512 L 416.57255 458.4937 L 416.842081 458.231981 L 418.967081 453.189012 M 417.377237 456.903856 L 415.775675 453.189012 M 426.654581 459.821825 L 426.131144 459.286669 L 425.595987 458.4937 L 425.064737 457.423387 L 424.803019 456.106981 L 424.803019 455.040575 L 425.064737 453.71245 L 425.595987 452.396044 L 426.131144 451.58745 L 426.654581 451.067919 M 428.513956 456.903856 L 428.513956 453.189012 M 428.513956 455.833544 L 429.310831 456.630419 L 429.842081 456.903856 L 430.638956 456.903856 L 431.170206 456.630419 L 431.431925 455.833544 L 431.431925 453.189012 M 433.556925 456.903856 L 433.556925 453.189012 " transform="matrix(1,0,0,-1,-316.0413,461.1187)"/>
<path style="fill:none;stroke-width:0.454;stroke-linecap:butt;stroke-linejoin:miter;stroke:rgb(0%,0%,0%);stroke-opacity:1;stroke-miterlimit:2.5;" d="M 433.556925 455.833544 L 434.349894 456.630419 L 434.88505 456.903856 L 435.678019 456.903856 L 436.213175 456.630419 L 436.474894 455.833544 L 436.474894 453.189012 M 436.474894 455.833544 L 437.267862 456.630419 L 437.803019 456.903856 L 438.595987 456.903856 L 439.131144 456.630419 L 439.392862 455.833544 L 439.392862 453.189012 M 441.252237 459.821825 L 441.775675 459.286669 L 442.310831 458.4937 L 442.842081 457.423387 L 443.1038 456.106981 L 443.1038 455.040575 L 442.842081 453.71245 L 442.310831 452.396044 L 441.775675 451.58745 L 441.252237 451.067919 M 434.498331 438.485887 L 434.498331 432.911669 M 438.209269 438.485887 L 438.209269 432.911669 M 434.498331 435.829637 L 438.209269 435.829637 M 502.779581 417.856981 L 502.779581 412.294481 M 506.490519 417.856981 L 506.490519 412.294481 M 502.779581 415.21245 L 506.490519 415.21245 M 508.3538 414.415575 L 511.533487 414.415575 L 511.533487 414.939012 L 511.271769 415.474169 L 511.01005 415.735887 L 510.4788 416.005419 L 509.681925 416.005419 L 509.150675 415.735887 L 508.615519 415.21245 L 508.3538 414.415575 L 508.3538 413.884325 L 508.615519 413.08745 L 509.150675 412.5562 L 509.681925 412.294481 L 510.4788 412.294481 L 511.01005 412.5562 L 511.533487 413.08745 M 423.678019 374.794481 L 423.404581 375.325731 L 422.88505 375.860887 L 422.349894 376.122606 L 421.283487 376.122606 L 420.76005 375.860887 L 420.2288 375.325731 L 419.967081 374.794481 L 419.693644 373.997606 L 419.693644 372.669481 L 419.967081 371.876512 L 420.2288 371.353075 L 420.76005 370.817919 L 421.283487 370.5562 L 422.349894 370.5562 L 422.88505 370.817919 L 423.404581 371.353075 L 423.678019 371.876512 M 505.185831 366.005419 L 504.924112 366.540575 L 504.392862 367.071825 L 503.869425 367.333544 L 502.803019 367.333544 L 502.267862 367.071825 L 501.744425 366.540575 L 501.474894 366.005419 L 501.213175 365.208544 L 501.213175 363.880419 L 501.474894 363.08745 L 501.744425 362.564012 L 502.267862 362.032762 L 502.803019 361.771044 L 503.869425 361.771044 L 504.392862 362.032762 L 504.924112 362.564012 L 505.185831 363.08745 M 508.217081 368.751512 L 508.217081 365.802294 M 506.740519 367.278856 L 509.705362 367.278856 M 440.279581 358.942919 L 440.279581 353.3687 M 440.279581 358.942919 L 443.990519 353.3687 L 443.990519 358.942919 M 435.951456 367.028856 L 435.4163 366.755419 L 434.88505 366.231981 L 434.623331 365.700731 L 434.361612 364.903856 L 434.361612 363.575731 L 434.623331 362.782762 L 434.88505 362.247606 L 435.4163 361.71245 L 435.951456 361.450731 L 437.006144 361.450731 L 437.5413 361.71245 L 438.076456 362.247606 L 438.334269 362.782762 L 438.607706 363.575731 L 438.607706 364.903856 L 438.334269 365.700731 L 438.076456 366.231981 L 437.5413 366.755419 L 437.006144 367.028856 L 435.951456 367.028856 M 484.01005 348.110887 L 484.01005 342.536669 M 484.01005 348.110887 L 487.736612 342.536669 L 487.736612 348.110887 M 489.584269 344.661669 L 492.775675 344.661669 L 492.775675 345.192919 L 492.502237 345.716356 L 492.244425 345.989794 L 491.709269 346.251512 L 490.9163 346.251512 L 490.381144 345.989794 L 489.857706 345.454637 L 489.584269 344.661669 L 489.584269 344.126512 L 489.857706 343.333544 L 490.381144 342.798387 L 490.9163 342.536669 L 491.709269 342.536669 L 492.244425 342.798387 L 492.775675 343.333544 " transform="matrix(1,0,0,-1,-316.0413,461.1187)"/>
<path style="fill:none;stroke-width:0.454;stroke-linecap:butt;stroke-linejoin:miter;stroke:rgb(0%,0%,0%);stroke-opacity:1;stroke-miterlimit:2.5;" d="M 381.931925 285.747606 L 381.931925 280.173387 M 381.931925 285.747606 L 385.654581 280.173387 L 385.654581 285.747606 M 390.69755 283.884325 L 390.69755 280.173387 M 390.69755 283.091356 L 390.162394 283.622606 L 389.627237 283.884325 L 388.834269 283.884325 L 388.299112 283.622606 L 387.779581 283.091356 L 387.506144 282.294481 L 387.506144 281.759325 L 387.779581 280.966356 L 388.299112 280.4312 L 388.834269 280.173387 L 389.627237 280.173387 L 390.162394 280.4312 L 390.69755 280.966356 M 397.529581 332.454637 L 397.529581 326.892137 M 397.529581 332.454637 L 399.654581 326.892137 L 401.775675 332.454637 L 401.775675 326.892137 M 406.818644 330.603075 L 406.818644 326.095262 L 406.556925 325.302294 L 406.283487 325.028856 L 405.752237 324.767137 L 404.955362 324.767137 L 404.435831 325.028856 M 406.818644 329.810106 L 406.283487 330.341356 L 405.752237 330.603075 L 404.955362 330.603075 L 404.435831 330.341356 L 403.900675 329.810106 L 403.627237 329.013231 L 403.627237 328.481981 L 403.900675 327.685106 L 404.435831 327.153856 L 404.955362 326.892137 L 405.752237 326.892137 L 406.283487 327.153856 L 406.818644 327.685106 M 443.443644 315.8687 L 443.443644 310.294481 M 443.443644 315.8687 L 445.568644 310.294481 L 447.689737 315.8687 L 447.689737 310.294481 M 452.732706 314.005419 L 452.732706 309.497606 L 452.470987 308.704637 L 452.19755 308.4312 L 451.6663 308.169481 L 450.869425 308.169481 L 450.349894 308.4312 M 452.732706 313.21245 L 452.19755 313.7437 L 451.6663 314.005419 L 450.869425 314.005419 L 450.349894 313.7437 L 449.814737 313.21245 L 449.553019 312.415575 L 449.553019 311.880419 L 449.814737 311.08745 L 450.349894 310.552294 L 450.869425 310.294481 L 451.6663 310.294481 L 452.19755 310.552294 L 452.732706 311.08745 M 456.025675 317.286669 L 456.025675 314.321825 M 454.549112 315.798387 L 457.51005 315.798387 M 388.537394 337.974169 L 386.428019 332.39995 M 388.537394 337.974169 L 390.662394 332.39995 M 387.220987 334.259325 L 389.865519 334.259325 M 391.990519 337.974169 L 391.990519 332.39995 M 404.080362 361.759325 L 403.560831 362.294481 L 402.763956 362.552294 L 401.69755 362.552294 L 400.904581 362.294481 L 400.369425 361.759325 L 400.369425 361.224169 L 400.642862 360.704637 L 400.904581 360.4312 L 401.435831 360.169481 L 403.025675 359.634325 L 403.560831 359.376512 L 403.82255 359.103075 L 404.080362 358.579637 L 404.080362 357.786669 L 403.560831 357.251512 L 402.763956 356.978075 L 401.69755 356.978075 L 400.904581 357.251512 L 400.369425 357.786669 M 405.681925 362.552294 L 405.943644 362.294481 L 406.205362 362.552294 L 405.943644 362.825731 L 405.681925 362.552294 M 405.943644 360.704637 L 405.943644 356.978075 M 455.037394 335.771044 L 454.502237 336.302294 L 453.709269 336.564012 L 452.642862 336.564012 L 451.845987 336.302294 L 451.326456 335.771044 L 451.326456 335.235887 L 451.584269 334.716356 L 451.845987 334.442919 L 452.381144 334.1812 L 453.970987 333.646044 L 454.502237 333.384325 L 454.763956 333.114794 L 455.037394 332.591356 L 455.037394 331.798387 L 454.502237 331.263231 L 453.709269 330.989794 L 452.642862 330.989794 L 451.845987 331.263231 L 451.326456 331.798387 " transform="matrix(1,0,0,-1,-316.0413,461.1187)"/>
<path style="fill:none;stroke-width:0.454;stroke-linecap:butt;stroke-linejoin:miter;stroke:rgb(0%,0%,0%);stroke-opacity:1;stroke-miterlimit:2.5;" d="M 456.627237 336.564012 L 456.888956 336.302294 L 457.158487 336.564012 L 456.888956 336.83745 L 456.627237 336.564012 M 456.888956 334.716356 L 456.888956 330.989794 M 460.193644 337.985887 L 460.193644 335.032762 M 458.717081 336.509325 L 461.6663 336.509325 M 391.674112 300.814012 L 391.412394 301.333544 L 390.877237 301.8687 L 390.357706 302.130419 L 389.287394 302.130419 L 388.756144 301.8687 L 388.232706 301.333544 L 387.959269 300.814012 L 387.69755 300.005419 L 387.69755 298.689012 L 387.959269 297.896044 L 388.232706 297.360887 L 388.756144 296.829637 L 389.287394 296.567919 L 390.357706 296.567919 L 390.877237 296.829637 L 391.412394 297.360887 L 391.674112 297.896044 M 396.451456 300.278856 L 396.451456 296.567919 M 396.451456 299.485887 L 395.920206 300.005419 L 395.396769 300.278856 L 394.592081 300.278856 L 394.068644 300.005419 L 393.533487 299.485887 L 393.275675 298.689012 L 393.275675 298.157762 L 393.533487 297.360887 L 394.068644 296.829637 L 394.592081 296.567919 L 395.396769 296.567919 L 395.920206 296.829637 L 396.451456 297.360887 M 427.459269 277.7437 L 427.19755 278.27495 L 426.6663 278.810106 L 426.142862 279.071825 L 425.076456 279.071825 L 424.5413 278.810106 L 424.017862 278.27495 L 423.748331 277.7437 L 423.486612 276.946825 L 423.486612 275.6187 L 423.748331 274.825731 L 424.017862 274.302294 L 424.5413 273.767137 L 425.076456 273.497606 L 426.142862 273.497606 L 426.6663 273.767137 L 427.19755 274.302294 L 427.459269 274.825731 M 432.240519 277.220262 L 432.240519 273.497606 " transform="matrix(1,0,0,-1,-316.0413,461.1187)"/>
<path style="fill:none;stroke-width:0.454;stroke-linecap:butt;stroke-linejoin:miter;stroke:rgb(0%,0%,0%);stroke-opacity:1;stroke-miterlimit:2.5;" d="M 432.240519 276.415575 L 431.705362 276.946825 L 431.181925 277.220262 L 430.388956 277.220262 L 429.8538 276.946825 L 429.32255 276.415575 L 429.060831 275.6187 L 429.060831 275.095262 L 429.32255 274.302294 L 429.8538 273.767137 L 430.388956 273.497606 L 431.181925 273.497606 L 431.705362 273.767137 L 432.240519 274.302294 M 435.5413 280.489794 L 435.5413 277.536669 M 434.056925 279.013231 L 437.017862 279.013231 M 398.892862 342.333544 L 398.892862 336.771044 M 398.892862 342.333544 L 402.345987 342.333544 M 398.892862 339.685106 L 401.017862 339.685106 M 403.412394 338.892137 L 406.592081 338.892137 L 406.592081 339.415575 L 406.330362 339.950731 L 406.056925 340.220262 L 405.533487 340.481981 L 404.740519 340.481981 L 404.205362 340.220262 L 403.674112 339.685106 L 403.412394 338.892137 L 403.412394 338.360887 L 403.674112 337.564012 L 404.205362 337.032762 L 404.740519 336.771044 L 405.533487 336.771044 L 406.056925 337.032762 L 406.592081 337.564012 " transform="matrix(1,0,0,-1,-316.0413,461.1187)"/>
</g>
</svg>
